<?xml version="1.0" encoding="UTF-8" standalone="no"?>
<!-- Creator: CorelDRAW X7 -->

<svg
   xml:space="preserve"
   width="191.86mm"
   height="191.86002mm"
   version="1.1"
   style="clip-rule:evenodd;fill-rule:evenodd;image-rendering:optimizeQuality;shape-rendering:geometricPrecision;text-rendering:geometricPrecision"
   viewBox="0 0 19186 19186.002"
   id="svg593"
   sodipodi:docname="favicon.svg"
   xmlns:inkscape="http://www.inkscape.org/namespaces/inkscape"
   xmlns:sodipodi="http://sodipodi.sourceforge.net/DTD/sodipodi-0.dtd"
   xmlns="http://www.w3.org/2000/svg"
   xmlns:svg="http://www.w3.org/2000/svg"><sodipodi:namedview
   id="namedview595"
   pagecolor="#505050"
   bordercolor="#eeeeee"
   borderopacity="1"
   inkscape:showpageshadow="0"
   inkscape:pageopacity="0"
   inkscape:pagecheckerboard="0"
   inkscape:deskcolor="#505050"
   inkscape:document-units="mm"
   showgrid="false" />
 <defs
   id="defs335"><style
     type="text/css"
     id="style333">
   <![CDATA[
    .fil2 {fill:#1E1A19}
    .fil1 {fill:#2D3484}
    .fil0 {fill:#FEFEFE}
   ]]>
  </style></defs>
 <g
   id="Ebene_x0020_1"
   inkscape:label="Ebene 1"
   inkscape:groupmode="layer"
   transform="translate(-1310,-4884.9999)">
  <metadata
   id="CorelCorpID_0Corel-Layer" />
  
  <g
   id="_1680180294880">
   <path
   class="fil0"
   d="m 11424,22941 c 363,-6 256,-60 321,43 -40,105 120,75 -310,96 l 13,304 305,-62 c 54,-141 5,-88 77,-127 58,38 69,-70 69,301 l -642,38 c -88,-21 -18,7 -75,-38 43,-236 137,98 99,-353 -13,-152 -20,-295 -34,-447 -162,-99 -96,78 -129,-128 28,-18 19,-19 76,-34 l 253,-23 c 131,-8 260,-19 391,-22 1,34 13,156 12,178 -15,221 19,55 -52,127 -84,-34 -25,11 -66,-67 -11,-20 -2,-36 -30,-88 -345,-7 -318,-18 -278,302 z m 1016,299 c 8,4 20,0 23,10 3,7 231,68 79,153 -17,9 -80,21 -103,25 -93,16 -156,29 -244,25 -9,-69 -22,-46 3,-99 2,-5 8,-13 11,-18 4,-5 12,-12 16,-17 l 64,-47 -124,-694 -111,14 c -72,128 52,203 -137,178 l -45,-265 c 133,-63 569,-125 704,-140 l 47,296 c -128,30 -78,35 -118,-25 -87,-129 67,-117 -176,-97 z m -3207,-800 49,-17 c 180,-25 -161,0 55,-7 31,-1 105,10 141,14 153,166 283,606 434,769 l 72,-535 c -124,-151 -100,84 -107,-160 92,-45 273,5 482,7 269,4 755,-62 709,376 -19,181 -108,195 -185,236 l -81,53 c 169,300 165,200 274,256 l -2,104 -191,10 c -48,-71 -98,-132 -161,-220 -73,-103 -57,-137 -175,-225 -14,457 79,209 114,395 -76,55 -229,55 -302,41 -115,-22 -42,1 -95,-41 21,-188 -29,-31 125,-128 l 8,-720 -249,-5 -77,660 c -2,23 -8,95 -13,113 -43,145 -4,33 -50,91 -139,-18 -122,-31 -180,-153 l -209,-429 c -52,-107 -51,-137 -138,-206 l -61,553 c 124,88 106,46 106,160 -84,36 -292,9 -386,-32 6,-188 91,-85 130,-160 l 67,-640 c -111,-162 -82,93 -104,-160 z m 3898,-64 168,673 c 173,62 278,118 4,193 -10,3 -103,27 -106,28 -202,19 -57,20 -123,-30 13,-307 169,248 -36,-632 -48,-207 -11,-172 -167,-165 -45,83 -4,-109 -15,68 -7,120 35,113 -96,145 l -86,-306 692,-176 c 14,65 28,100 42,163 6,26 14,47 14,76 2,72 6,42 -20,82 -202,-13 -23,-65 -177,-148 z m -6725,-255 c -113,-707 919,-821 1028,-181 118,695 -923,836 -1028,181 z m 7853,-96 c 137,346 440,869 -102,950 -319,49 -351,-269 -488,-615 -96,-243 -89,0 -194,-175 40,-85 22,-51 143,-100 71,-28 263,-109 203,46 l -38,63 c -30,51 133,426 179,514 138,268 349,53 353,46 49,-85 -134,-633 -229,-685 l -70,-20 c -8,-2 -34,-4 -44,-9 11,-127 -45,-79 129,-144 87,-32 121,-51 212,-53 11,46 28,114 -54,182 z m -6636,-178 c 94,0 285,59 351,146 -140,233 -64,-172 -241,316 l 389,157 81,-245 c -75,-107 -110,-26 -45,-188 335,109 651,244 1031,312 -3,65 -3,114 -24,179 -48,154 -16,77 -85,110 -114,-64 -53,-28 -48,-178 l -307,-80 -73,281 c 410,75 299,64 296,167 -112,80 -77,10 -339,-27 l -75,282 290,80 c 7,-8 14,-29 17,-23 12,25 29,-109 107,-106 119,6 9,246 -6,294 l -577,-138 c -87,-24 -162,-14 -104,-119 77,-137 94,135 212,-307 36,-137 87,-274 95,-416 l -218,-103 c -41,109 -260,611 -244,683 13,59 94,17 41,179 -73,-18 -112,-34 -181,-59 l -164,-92 c 122,-270 44,197 256,-349 l -375,-158 c -31,78 -103,193 -92,271 l 44,176 c -85,-7 -128,-22 -203,-50 -143,-54 -125,-58 -145,-114 l 153,-76 245,-641 c -111,-104 -101,12 -62,-164 z m -237,-473 c 21,33 95,-57 14,116 -35,34 -87,17 -139,-7 37,-106 24,-140 125,-109 z m 7974,714 c -35,-112 -84,-194 -133,-296 -156,-331 -51,-174 -169,-216 -6,-2 -97,33 -101,-67 -2,-63 287,-177 352,-187 59,176 -91,182 -45,195 l 363,762 c -252,140 -489,-246 -906,-402 55,122 120,249 177,374 166,360 100,28 244,221 -28,88 -54,72 -151,123 -237,126 -177,55 -201,46 -59,-165 -14,-25 50,-170 l -307,-623 c -116,19 -119,62 -160,-79 252,-192 306,-80 512,47 130,79 350,227 475,272 z m -8185,-814 c 2,7 99,-12 -49,147 l -86,-68 c 49,-116 3,-124 135,-79 z m 9268,249 c -164,475 -704,557 -951,165 -194,-308 -27,-658 258,-765 285,-106 22,-76 253,-154 l 112,200 c -206,168 -293,-23 -471,169 -108,115 -146,339 -35,497 210,299 738,206 695,-311 -180,93 -309,215 -386,233 l -38,-3 c -71,-140 -64,-43 195,-242 92,-72 165,-118 261,-173 71,92 155,211 226,315 116,169 -17,225 -119,69 z m -11037,50 c 81,-23 30,-2 158,12 37,-100 183,-294 258,-388 285,-354 -17,-135 124,-382 51,17 214,114 253,163 134,167 -94,103 -142,103 l -134,208 c 96,102 216,177 343,254 88,-76 86,-109 154,-190 l -38,-178 c 124,-33 236,73 325,178 -130,231 -60,-117 -244,164 l -324,480 c 1,65 120,50 11,155 -40,38 -112,-30 -166,-68 -94,-66 -91,-55 -125,-123 179,-200 64,187 326,-288 -78,-102 -263,-213 -374,-260 -38,82 -85,164 -156,218 l 50,144 c 0,0 1,37 0,47 -109,23 -96,5 -197,-62 -141,-94 -124,-41 -102,-187 z M 2810,16939 c 64,-309 417,-302 552,-68 30,53 212,426 86,440 -128,15 8,12 -128,-69 l -649,211 -22,91 c -38,86 30,27 -60,67 -86,-43 -79,-91 -117,-202 -31,-90 -64,-173 -51,-276 24,-193 200,-255 389,-194 z m 16173,53 c 52,110 144,257 223,346 l 29,-8 c 3,0 12,-4 15,-5 4,0 13,-4 17,-5 l 108,4 c -18,118 -70,317 -152,372 -137,-76 -50,8 -63,-126 -17,-168 -109,-196 -224,-415 -145,15 -376,68 -488,169 -73,66 -5,71 -126,56 -38,-93 55,-250 76,-370 287,73 -6,44 168,103 z m 362,-31 c 117,-96 -9,-95 138,-69 30,64 33,-66 17,103 -9,95 -68,215 -125,257 -59,-35 -50,-48 -77,-109 -2,-6 -7,-12 -8,-25 -6,-42 -571,-218 -648,-245 -153,82 12,106 -188,61 16,-125 55,-301 156,-345 231,114 -217,46 337,236 136,47 268,90 398,136 z m 437,-1035 c -51,231 -145,912 -604,639 -109,-65 -98,-174 -153,-291 -513,139 -106,192 -383,188 -33,-52 -33,47 -28,-94 5,-127 136,-156 202,-181 113,-43 250,-84 328,-151 l -247,-64 c -97,87 -52,108 -176,87 -17,-100 -4,-103 19,-201 45,-197 36,-146 93,-179 112,57 45,54 96,156 l 672,163 c 80,-105 15,-135 181,-72 z m -17545,41 c 336,-56 842,-338 945,124 88,396 -294,445 -782,538 7,136 25,136 -128,150 -26,-191 -107,-283 -35,-382 235,1 -11,7 160,91 327,-96 839,-85 578,-503 -215,-27 -475,66 -674,117 -4,8 -7,19 -9,25 -42,111 -25,103 -82,134 -97,-32 -55,20 -96,-125 -3,-11 -37,-159 -37,-163 -2,-77 -22,-134 86,-104 76,21 16,5 74,98 z m 16555,-456 c -15,-154 11,-599 73,-709 208,24 29,7 146,132 l 698,-2 c 44,-49 -39,-61 126,-48 33,149 -26,537 -42,714 -416,-10 -264,-6 -300,-97 8,-5 19,-9 26,-12 6,-3 18,-9 26,-12 l 146,-328 -283,-26 c -11,69 -10,129 -19,190 -25,168 25,110 -108,122 -38,-49 -16,14 -32,-66 l 12,-262 -305,-21 21,308 c 6,3 17,6 23,10 119,59 69,-19 90,97 -84,55 -192,29 -298,10 z M 10113,6857 c 1652,-184 3351,180 4725,1000 l 574,385 c 430,289 490,404 776,663 l 1123,1276 c 714,1075 1135,2067 1281,3515 201,1984 -296,3719 -1380,5269 l -891,1026 c -570,490 -874,827 -1638,1242 -1924,1044 -4254,1268 -6333,534 -747,-264 -1855,-868 -2417,-1424 -181,-178 -334,-285 -496,-463 -153,-167 -292,-308 -463,-497 l -410,-549 c -139,-203 -248,-362 -372,-588 -494,-900 -783,-1737 -913,-2917 -223,-2026 295,-3713 1373,-5281 133,-194 273,-380 422,-535 703,-734 1209,-1240 2102,-1736 908,-505 1731,-785 2937,-920 z m -7268,8430 52,-93 c 4,-4 9,-12 13,-16 62,-51 36,-24 112,-14 10,100 75,569 -109,339 -5,-6 -22,-28 -25,-43 -2,-11 -6,-15 -11,-23 l -672,60 c -72,123 21,111 -128,132 l -47,-126 c -30,-213 146,-236 532,-573 57,-49 95,-67 148,-125 l -551,44 c -83,88 -12,52 -55,96 -45,46 54,23 -91,40 -49,-80 -63,-270 -44,-390 33,-4 31,-13 69,-3 57,16 56,44 75,68 l 863,-28 c 10,157 -24,163 -124,238 l -573,465 z m -893,-1095 c 11,-355 58,-776 540,-766 596,11 550,717 449,988 -186,2 -82,-6 -114,-39 -6,-7 -19,-36 -23,-41 -3,-4 -10,-10 -11,-22 -9,-52 -400,-48 -460,-53 -354,-30 -184,87 -352,98 z m 16891,-322 c -2,-171 38,-134 484,-274 786,-247 121,-200 498,-243 l 23,47 c 36,118 -8,-81 13,54 1,4 4,88 4,96 1,67 -3,119 -11,185 -207,-2 -63,16 -158,-111 l -571,187 c 110,59 261,75 396,108 342,83 293,25 350,143 -94,145 -473,132 -744,270 l 570,155 80,-91 c 66,-32 39,-12 102,-4 1,116 25,278 -22,367 -254,-12 29,-48 -202,-141 -60,-24 -215,-59 -279,-76 -93,-25 -177,-50 -275,-78 -40,-11 -114,-23 -152,-37 -151,-57 -42,16 -102,-77 -42,-213 418,-109 691,-299 z m 44,-793 c 505,130 106,-419 476,-532 394,-120 427,325 391,544 l -226,31 c -18,-279 35,-84 85,-258 25,-89 -35,-130 -76,-171 -254,-20 -183,87 -225,313 -28,150 -100,238 -261,252 -419,39 -336,-421 -336,-421 -3,-88 -30,-26 -51,-189 l 280,-39 c 70,268 -6,71 -87,232 -47,93 0,176 30,238 z m -16810,103 c -44,-105 -11,-141 29,-371 21,-119 40,-231 58,-348 202,21 290,11 286,98 -46,99 -28,49 -175,59 l -28,312 271,38 71,-304 c 196,17 91,122 74,337 l 305,45 44,-295 c -153,-90 -119,27 -129,-128 92,-58 63,-21 294,4 l -118,719 c -244,-40 -77,40 -150,-146 l -672,-116 c -122,121 41,17 -82,89 -64,38 -25,16 -78,7 z m 16565,-1254 c 143,-34 291,-78 433,-114 450,-116 33,-131 302,-212 80,60 89,194 131,347 31,116 67,230 84,350 -75,18 -215,78 -271,48 -115,-61 61,-133 101,-170 l -78,-288 -272,62 63,338 -121,18 -77,-307 -263,69 c -23,55 2,78 -33,120 -25,30 -53,28 -95,37 l -92,-280 c -8,-148 -1,-54 23,-101 177,-45 21,-7 165,83 z m -15467,10 c -398,-185 -219,366 -616,339 -143,-10 -260,-117 -269,-259 -8,-120 46,-186 105,-318 l 35,-72 211,70 c -34,241 -80,60 -181,193 -65,85 -22,196 58,231 185,81 238,-234 340,-316 186,-150 423,2 473,173 60,207 -75,244 -89,375 0,3 2,92 -3,125 l -285,-78 c 14,-240 52,-62 186,-184 73,-66 59,-187 35,-279 z m 439,-1062 c 176,-30 34,-22 117,-56 62,-25 -64,-55 94,-6 6,92 -72,266 -97,296 -59,70 1,28 -84,48 -22,-14 -54,-14 -60,-114 -1,-8 -1,-12 -4,-20 l -128,-2 c -55,66 -103,165 -136,255 -30,82 -50,65 -1,143 114,182 124,-127 220,34 38,65 -74,259 -84,274 -46,61 -13,43 -99,60 l -36,-116 c -38,-130 -69,-113 -214,-263 -105,-110 -208,-197 -292,-316 l -85,42 c -70,20 -71,6 -115,-27 l 111,-267 z m 14689,240 c 3,-6 12,13 20,21 l 660,-251 c 6,-111 -35,-100 74,-152 46,37 19,-4 61,72 l 89,273 c -145,45 -92,4 -182,-55 l -674,256 122,300 c 107,17 83,-37 175,22 -20,64 91,68 -273,151 -52,-261 -242,-537 -199,-684 93,-26 72,-2 109,29 3,4 15,24 18,18 z m -420,-497 c 154,-73 85,-43 184,43 l 629,-318 c -17,-106 -39,-55 -4,-150 149,-1 77,-63 256,314 l -80,65 c -100,-68 -20,-50 -139,-90 -105,87 -256,146 -388,212 -434,217 1,143 -275,270 -86,-82 -148,-229 -183,-346 z M 3516,9713 c -8,3 -17,10 -22,12 -140,74 4,99 -131,40 -78,-35 -118,6 121,-365 44,18 74,6 96,68 51,143 -166,42 507,411 279,152 190,58 206,204 -126,95 -216,60 -460,73 -165,9 -324,14 -485,28 97,98 379,249 496,315 93,-83 33,-95 188,-52 -20,118 -30,113 -84,209 -95,169 -13,132 -186,119 -17,-95 -5,-54 15,-160 l -612,-344 c -82,79 -46,98 -194,32 l 119,-245 711,-36 c 23,-2 85,-9 106,-16 70,-23 33,-11 67,-31 z m 14053,39 c 54,-68 465,-320 564,-358 -38,-155 -74,-86 29,-181 114,25 201,218 234,319 l -74,49 c -129,-31 -11,30 -116,-76 -78,45 -141,70 -204,146 l 183,330 c 146,-33 117,-60 241,-108 -24,-131 -66,-96 21,-188 83,16 49,0 102,57 2,2 45,69 50,78 31,52 69,122 98,183 -99,67 -86,54 -169,15 l -46,-24 c -120,62 -235,154 -359,224 -20,12 -169,101 -178,111 -54,62 -9,-29 -26,55 -9,44 18,74 -7,128 -141,11 -79,34 -155,-74 -181,-257 -145,-256 -44,-274 96,-16 22,3 129,57 99,-61 135,-59 230,-156 -53,-141 -140,-226 -202,-342 -395,200 -189,139 -247,307 l -196,-126 c -43,-67 -67,-106 -90,-180 44,-21 60,-39 111,-30 27,4 53,23 69,30 z M 4532,9211 c -293,-47 -421,392 -695,118 -257,-256 71,-431 150,-551 42,-65 8,-21 41,-58 77,33 15,-2 103,60 39,27 57,42 88,65 -140,230 -77,50 -260,159 -152,108 -34,238 -17,249 270,49 454,-424 728,-85 224,276 -138,500 -139,501 -75,74 2,7 -46,154 -106,-16 -110,-19 -194,-89 -87,-73 -77,-45 -49,-164 133,-55 63,5 196,-21 125,-24 233,-151 94,-338 z m 12212,-571 c 142,154 -18,373 239,400 314,33 70,-313 39,-426 -57,-211 210,-708 672,-13 l -172,144 c -158,-154 -46,-68 -84,-231 -31,-136 -127,-127 -256,-97 -73,274 269,430 39,674 -204,217 -483,60 -546,-200 -91,18 -75,12 -137,-43 41,-101 124,-147 206,-208 z M 4213,8530 c 66,-156 237,-284 359,-413 28,-29 34,-40 65,-66 41,-35 14,-14 62,-41 42,24 109,64 141,96 138,139 35,151 35,151 -7,2 -18,3 -22,2 l -61,-11 c -17,-7 -63,-50 -71,-57 l -103,115 516,493 c 68,-57 59,-73 151,-53 51,119 8,123 -81,225 -101,114 -87,145 -226,80 -5,-109 18,-16 44,-173 -127,-77 -155,-140 -265,-245 -89,-84 -157,-171 -289,-204 -143,228 -26,82 24,244 -101,74 -164,10 -279,-143 z m 11870,-325 449,-502 c -28,-127 -33,-41 -47,-145 l 75,-73 524,470 c -35,92 -119,180 -203,220 -82,-101 -68,-75 23,-188 -79,-79 -151,-156 -245,-217 -112,103 -123,68 -176,235 l 242,179 -94,100 -265,-197 c -73,67 -116,141 -175,219 62,61 173,156 222,214 129,-58 35,-139 209,-50 -43,103 -103,173 -187,234 l -538,-452 c 82,-168 44,-99 186,-47 z M 5699,7214 c 24,-103 65,-105 152,-154 345,-195 165,53 148,95 115,219 285,409 385,614 125,-41 190,-114 283,-175 -44,-84 -118,-150 -14,-206 96,39 150,151 189,259 -153,96 -321,209 -481,307 -66,39 -85,38 -149,72 -143,76 -193,214 -304,232 -135,-106 45,120 -34,-37 -60,-119 64,-105 -121,-192 l -299,228 43,145 98,3 c 151,38 47,105 31,121 -82,82 -149,154 -250,189 l -61,-63 c 72,-135 94,-1 49,-205 l -230,-636 c -102,79 -90,54 -166,-23 43,-93 145,-159 243,-211 87,53 726,408 825,400 91,-8 178,-74 232,-105 -45,-127 -307,-506 -395,-645 -145,31 -68,75 -174,-13 z m 483,758 c 17,22 34,-70 -11,-14 z m 9031,-407 c 54,-100 338,-498 417,-570 -54,-114 -90,-49 -21,-187 108,35 225,144 299,207 -187,267 -20,-199 -325,268 83,90 227,188 340,260 83,-49 117,-126 181,-206 -62,-150 -85,-32 -25,-189 157,59 201,140 304,213 l -60,58 c -120,48 15,-33 -104,6 l -418,531 c -24,75 96,70 -7,213 -97,-53 -216,-132 -279,-214 95,-134 42,-64 159,-48 l 176,-251 -380,-248 c -33,69 -102,169 -152,227 3,8 9,18 11,22 82,182 7,137 -7,151 -67,-1 -586,-329 -109,-243 z m -8246,-1141 61,303 c -107,-41 -82,-201 -198,-94 -95,89 161,387 283,669 147,-1 72,-73 171,42 -31,91 2,48 -109,113 -5,3 -150,76 -155,76 -204,32 -35,-178 -35,-178 l -323,-624 -119,61 c -23,132 19,23 23,127 6,169 -143,58 -212,-191 z m 8031,923 c -285,317 -955,-119 -722,-656 76,-174 271,-331 561,-282 114,20 216,80 282,146 198,198 29,2 228,122 l -127,209 c -190,-70 -136,-239 -336,-322 -400,-165 -700,364 -391,646 216,197 306,-31 505,137 z m -1423,-530 c 45,45 7,38 97,62 56,15 61,13 112,-8 342,-145 -168,-414 -209,-503 -90,-197 53,-371 212,-389 213,-25 84,50 422,116 -21,121 -33,193 -106,250 -207,-91 -50,-111 -170,-207 -86,-69 -187,-33 -222,51 -80,189 205,235 288,365 126,200 -24,418 -203,455 -110,22 -185,-6 -259,-58 -191,-136 27,-19 -223,-65 23,-119 45,-226 115,-294 192,76 47,60 146,225 z M 8284,5895 c 79,316 103,204 29,299 -92,-31 11,26 -55,-40 -42,-42 -3,-24 -45,-58 -13,-11 75,-89 -124,-13 -45,85 -62,-105 -18,128 l 192,547 c 6,8 134,60 164,115 -53,74 -243,141 -351,134 -22,-86 -22,-68 60,-172 l -227,-683 -152,126 c -1,6 1,17 1,23 l -21,92 c -67,-20 -70,51 -150,-273 z m 4544,845 c 20,-162 31,-93 136,-122 l 187,-646 -50,-54 c -48,-61 -34,-40 -12,-149 l 341,107 c -25,190 -12,75 -139,127 l -184,641 c 5,6 13,14 17,18 3,4 12,13 15,18 62,73 52,54 33,168 z M 8632,5972 c -36,-27 -209,-35 -145,-141 36,-58 620,-176 688,-179 21,106 67,202 33,283 -108,6 -45,19 -108,-46 -6,-6 -22,-34 -25,-39 l -316,34 68,273 c 83,-15 203,-67 280,-50 102,23 0,-31 58,41 40,114 -66,86 -302,154 l 90,299 285,-64 c 17,-180 -56,-120 66,-184 85,53 92,176 100,286 l -696,159 c -8,-43 -26,-63 12,-127 l 72,-60 z m 3183,419 c 71,-44 143,-580 158,-675 l -47,-29 c -5,-4 -15,-10 -20,-15 -59,-63 -31,-78 -22,-125 468,-56 335,498 630,834 l 105,-537 c -27,-25 -242,-156 -28,-177 0,0 180,29 184,30 207,55 76,-12 126,83 -51,99 -91,71 -144,96 l -150,748 c -20,51 -25,46 -41,68 -148,-32 -119,-21 -173,-164 l -273,-689 -64,198 c -13,66 -23,120 -38,189 -33,151 -39,136 13,215 34,51 51,27 53,107 -54,41 38,25 -93,32 l -284,-64 c 5,-216 34,-80 108,-125 z m -1348,-150 c -142,486 -843,431 -965,-51 -91,-356 159,-715 571,-672 304,32 43,-13 278,-21 l 34,246 c -281,53 -191,-156 -492,-77 -388,102 -310,704 51,765 319,54 184,-148 523,-190 z m 162,262 c -25,-201 86,-107 116,-179 l 23,-672 c -62,-51 -114,3 -117,-176 l 397,27 c -3,139 -97,140 -97,139 -4,-7 -17,6 -28,10 l -8,264 399,2 -57,-278 c -5,-3 -14,-8 -19,-12 -53,-51 -34,-35 -32,-130 l 383,13 c 18,111 33,84 -67,148 l -29,719 c 86,56 73,12 74,145 l -312,-5 c -58,-13 -58,-20 -84,-34 21,-97 18,-45 57,-89 80,-92 12,63 66,-75 16,-41 10,-207 9,-258 l -395,-4 -10,266 c 6,6 16,13 21,16 l 73,57 c 38,47 24,-14 23,112 z m 9503,8551 c 167,-1974 -456,-4271 -1638,-5865 -160,-216 -317,-451 -506,-645 l -274,-301 c -204,-209 -366,-399 -593,-591 -113,-95 -175,-162 -297,-277 l -318,-257 c -209,-186 -1167,-777 -1408,-895 -1160,-571 -2183,-874 -3647,-968 -1953,-127 -3945,366 -5497,1397 -419,278 -962,654 -1298,1004 -424,441 -717,686 -1128,1206 -1993,2518 -2416,6002 -1275,9022 687,1819 2318,3691 4039,4658 636,357 1283,642 2027,853 1954,555 4181,411 5998,-292 1741,-673 3424,-2101 4417,-3671 873,-1379 1248,-2607 1398,-4378 z"
   id="path465" />
   <path
   class="fil0"
   d="m 4854,17964 c 93,-82 401,-237 533,-305 284,-147 1555,-869 1663,-866 139,181 233,383 405,557 424,432 431,515 1024,927 206,142 393,239 639,353 740,342 1681,442 2519,323 271,-39 572,-149 787,-176 l 426,1105 -936,242 c -63,391 -61,1258 -250,1311 -422,118 -1221,-4 -1618,-25 l -166,-1310 c -146,-21 -300,-57 -444,-95 -141,-36 -319,-107 -452,-129 -128,111 -749,946 -788,1034 -250,-64 -931,-427 -1142,-599 l -331,-269 507,-1224 c -226,-220 -442,-376 -628,-637 -391,78 -866,400 -1263,499 l -453,-647 c -29,-54 -4,3 -32,-69 z M 9913,8918 c 26,-247 62,-493 95,-741 69,-536 2,-579 221,-608 389,-52 1223,-89 1542,59 64,63 117,941 157,1160 53,288 392,135 951,386 -52,188 -296,1038 -377,1139 -1088,-407 -2313,-345 -3367,94 -531,221 -868,495 -1218,797 -466,402 -442,483 -695,807 -94,119 -117,173 -189,284 -153,-79 -2096,-1159 -2172,-1239 50,-102 170,-283 236,-370 l 258,-312 c 2,-10 11,-10 16,-15 l 1183,494 673,-660 c -46,-270 -396,-954 -507,-1253 392,-294 872,-624 1465,-816 150,138 257,336 412,507 114,126 290,383 369,519 z m 3143,-388 c -36,-327 223,-417 534,-400 274,16 458,161 665,277 412,231 805,504 1134,754 637,484 1260,1226 1707,2066 1147,2155 1066,5433 -456,7359 -383,485 -430,546 -896,988 -427,406 -1153,864 -1687,1128 -233,115 -462,232 -764,84 -232,-112 -249,-437 -111,-671 l 503,-457 c 168,-163 570,-611 451,-896 -95,-228 -545,-69 -1584,-785 -1061,-731 -1073,-1131 -2070,-1670 -1062,-574 -1925,-496 -3049,-119 -546,183 -794,424 -1483,395 -1940,-81 -2795,-2619 -1222,-3772 652,-478 1446,-607 2209,-249 407,191 961,346 1465,422 950,145 1771,-134 2512,-671 418,-302 347,-267 737,-669 1121,-1157 2320,-1356 2373,-1400 217,-181 -31,-527 -131,-673 -288,-418 -401,-447 -703,-706 -86,-73 -116,-166 -134,-335 z M 10322,7202 c -1482,104 -2569,559 -3667,1334 -503,355 -1267,1132 -1628,1600 -390,506 -741,1156 -977,1773 -695,1814 -588,4367 396,6052 684,1171 1135,1658 2138,2435 184,143 337,261 539,387 1285,802 2841,1135 4419,1021 2693,-195 4235,-1580 5484,-3186 245,-315 625,-1094 788,-1514 742,-1919 567,-4229 -384,-6052 -379,-727 -1026,-1513 -1645,-2033 -232,-194 -88,-128 -485,-410 -680,-483 -894,-649 -1768,-981 -984,-373 -2066,-506 -3210,-426 z"
   id="path467" />
   <path
   class="fil1"
   d="m 13850,11463 c 861,-106 1635,6 2246,573 484,448 800,1286 877,1970 102,911 -113,1680 -523,2309 -387,592 -794,979 -1804,1043 -1118,70 -1580,-147 -2196,-685 -203,-176 -459,-508 -613,-825 -585,-1206 -471,-2257 243,-3295 336,-488 905,-984 1770,-1090 z m -6204,2047 c 973,-265 939,1168 787,1505 -250,554 -1285,584 -1289,-376 -2,-390 -94,-967 502,-1129 z m -1850,-352 c 311,-63 776,67 793,362 6,105 -96,358 -124,485 -38,172 -60,384 -52,569 12,282 211,914 171,1050 -77,262 -570,351 -898,264 -1355,-357 -1404,-2422 110,-2730 z m 9948,6416 c 466,-442 513,-503 896,-988 1522,-1926 1603,-5204 456,-7359 -447,-840 -1070,-1582 -1707,-2066 -329,-250 -722,-523 -1134,-754 -207,-116 -391,-261 -665,-277 -311,-17 -570,73 -534,400 18,169 48,262 134,335 302,259 415,288 703,706 100,146 348,492 131,673 -53,44 -1252,243 -2373,1400 -390,402 -319,367 -737,669 -741,537 -1562,816 -2512,671 -504,-76 -1058,-231 -1465,-422 -763,-358 -1557,-229 -2209,249 -1573,1153 -718,3691 1222,3772 689,29 937,-212 1483,-395 1124,-377 1987,-455 3049,119 997,539 1009,939 2070,1670 1039,716 1489,557 1584,785 119,285 -283,733 -451,896 l -503,457 c -138,234 -121,559 111,671 302,148 531,31 764,-84 534,-264 1260,-722 1687,-1128 z"
   id="path469" />
   <path
   class="fil0"
   d="m 13850,11463 c -865,106 -1434,602 -1770,1090 -714,1038 -828,2089 -243,3295 154,317 410,649 613,825 616,538 1078,755 2196,685 1010,-64 1417,-451 1804,-1043 410,-629 625,-1398 523,-2309 -77,-684 -393,-1522 -877,-1970 -611,-567 -1385,-679 -2246,-573 z"
   id="path471" />
   <path
   class="fil1"
   d="m 20132,15054 c -150,1771 -525,2999 -1398,4378 -993,1570 -2676,2998 -4417,3671 -1817,703 -4044,847 -5998,292 -744,-211 -1391,-496 -2027,-853 -1721,-967 -3352,-2839 -4039,-4658 -1141,-3020 -718,-6504 1275,-9022 411,-520 704,-765 1128,-1206 336,-350 879,-726 1298,-1004 1552,-1031 3544,-1524 5497,-1397 1464,94 2487,397 3647,968 241,118 1199,709 1408,895 l 318,257 c 122,115 184,182 297,277 227,192 389,382 593,591 l 274,301 c 189,194 346,429 506,645 1182,1594 1805,3891 1638,5865 z M 1310,13988 v 1008 c 13,40 124,1281 296,1937 241,918 820,2305 1425,3051 184,227 297,426 489,629 l 530,591 1197,1041 c 410,294 872,591 1386,852 775,392 1643,680 2528,829 l 997,135 c 7,2 18,6 26,10 h 1464 l 243,-47 c 86,-7 166,-15 253,-26 489,-57 915,-144 1390,-270 2596,-694 4858,-2710 6039,-5090 248,-498 437,-1035 597,-1610 155,-558 302,-1864 326,-1917 v -1318 l -146,-1021 c -199,-1216 -858,-2971 -1678,-3921 -177,-205 -328,-429 -495,-625 -407,-480 -1289,-1292 -1771,-1616 -1313,-883 -2349,-1352 -3985,-1610 -205,-32 -902,-74 -1007,-115 h -1023 c -303,117 -2161,-38 -4391,1332 -127,78 -239,138 -359,217 l -952,744 c -194,187 -390,329 -589,529 -1430,1432 -2387,3266 -2685,5277 -32,218 -62,871 -105,1004 z"
   id="path473" />
   <path
   class="fil1"
   d="m 10322,7202 c 1144,-80 2226,53 3210,426 874,332 1088,498 1768,981 397,282 253,216 485,410 619,520 1266,1306 1645,2033 951,1823 1126,4133 384,6052 -163,420 -543,1199 -788,1514 -1249,1606 -2791,2991 -5484,3186 -1578,114 -3134,-219 -4419,-1021 -202,-126 -355,-244 -539,-387 -1003,-777 -1454,-1264 -2138,-2435 -984,-1685 -1091,-4238 -396,-6052 236,-617 587,-1267 977,-1773 361,-468 1125,-1245 1628,-1600 1098,-775 2185,-1230 3667,-1334 z m -209,-345 c -1206,135 -2029,415 -2937,920 -893,496 -1399,1002 -2102,1736 -149,155 -289,341 -422,535 -1078,1568 -1596,3255 -1373,5281 130,1180 419,2017 913,2917 124,226 233,385 372,588 l 410,549 c 171,189 310,330 463,497 162,178 315,285 496,463 562,556 1670,1160 2417,1424 2079,734 4409,510 6333,-534 764,-415 1068,-752 1638,-1242 l 891,-1026 c 1084,-1550 1581,-3285 1380,-5269 -146,-1448 -567,-2440 -1281,-3515 L 16188,8905 c -286,-259 -346,-374 -776,-663 l -574,-385 C 13464,7037 11765,6673 10113,6857 Z"
   id="path475" />
   <path
   class="fil1"
   d="m 9913,8918 -947,232 c -79,-136 -255,-393 -369,-519 -155,-171 -262,-369 -412,-507 -593,192 -1073,522 -1465,816 111,299 461,983 507,1253 l -673,660 -1183,-494 c -5,5 -14,5 -16,15 l -258,312 c -66,87 -186,268 -236,370 76,80 2019,1160 2172,1239 72,-111 95,-165 189,-284 253,-324 229,-405 695,-807 350,-302 687,-576 1218,-797 1054,-439 2279,-501 3367,-94 81,-101 325,-951 377,-1139 -559,-251 -898,-98 -951,-386 -40,-219 -93,-1097 -157,-1160 -319,-148 -1153,-111 -1542,-59 -219,29 -152,72 -221,608 -33,248 -69,494 -95,741 z"
   id="path477" />
   <path
   class="fil1"
   d="m 4854,17964 c 28,72 3,15 32,69 l 453,647 c 397,-99 872,-421 1263,-499 186,261 402,417 628,637 l -507,1224 331,269 c 211,172 892,535 1142,599 39,-88 660,-923 788,-1034 133,22 311,93 452,129 144,38 298,74 444,95 l 166,1310 c 397,21 1196,143 1618,25 189,-53 187,-920 250,-1311 l 936,-242 -426,-1105 c -215,27 -516,137 -787,176 -838,119 -1779,19 -2519,-323 -246,-114 -433,-211 -639,-353 -593,-412 -600,-495 -1024,-927 -172,-174 -266,-376 -405,-557 -108,-3 -1379,719 -1663,866 -132,68 -440,223 -533,305 z"
   id="path479" />
   <path
   class="fil0"
   d="m 5796,13158 c -1514,308 -1465,2373 -110,2730 328,87 821,-2 898,-264 40,-136 -159,-768 -171,-1050 -8,-185 14,-397 52,-569 28,-127 130,-380 124,-485 -17,-295 -482,-425 -793,-362 z"
   id="path481" />
   <path
   class="fil0"
   d="m 7646,13510 c -596,162 -504,739 -502,1129 4,960 1039,930 1289,376 152,-337 186,-1770 -787,-1505 z"
   id="path483" />
   <path
   class="fil2"
   d="m 10556,22656 c 315,-14 420,57 326,342 -130,44 -167,51 -335,55 z m -1219,-240 c -216,7 125,-18 -55,7 l -49,17 c 22,253 -7,-2 104,160 l -67,640 c -39,75 -124,-28 -130,160 94,41 302,68 386,32 0,-114 18,-72 -106,-160 l 61,-553 c 87,69 86,99 138,206 l 209,429 c 58,122 41,135 180,153 46,-58 7,54 50,-91 5,-18 11,-90 13,-113 l 77,-660 249,5 -8,720 c -154,97 -104,-60 -125,128 53,42 -20,19 95,41 73,14 226,14 302,-41 -35,-186 -128,62 -114,-395 118,88 102,122 175,225 63,88 113,149 161,220 l 191,-10 2,-104 c -109,-56 -105,44 -274,-256 l 81,-53 c 77,-41 166,-55 185,-236 46,-438 -440,-372 -709,-376 -209,-2 -390,-52 -482,-7 7,244 -17,9 107,160 l -72,535 c -151,-163 -281,-603 -434,-769 -36,-4 -110,-15 -141,-14 z"
   id="path485" />
   <path
   class="fil2"
   d="m 7974,21993 c -66,-87 -257,-146 -351,-146 -39,176 -49,60 62,164 l -245,641 -153,76 c 20,56 2,60 145,114 75,28 118,43 203,50 l -44,-176 c -11,-78 61,-193 92,-271 l 375,158 c -212,546 -134,79 -256,349 l 164,92 c 69,25 108,41 181,59 53,-162 -28,-120 -41,-179 -16,-72 203,-574 244,-683 l 218,103 c -8,142 -59,279 -95,416 -118,442 -135,170 -212,307 -58,105 17,95 104,119 l 577,138 c 15,-48 125,-288 6,-294 -78,-3 -95,131 -107,106 -3,-6 -10,15 -17,23 l -290,-80 75,-282 c 262,37 227,107 339,27 3,-103 114,-92 -296,-167 l 73,-281 307,80 c -5,150 -66,114 48,178 69,-33 37,44 85,-110 21,-65 21,-114 24,-179 -380,-68 -696,-203 -1031,-312 -65,162 -30,81 45,188 l -81,245 -389,-157 c 177,-488 101,-83 241,-316 z"
   id="path487" />
   <path
   class="fil2"
   d="m 6171,7958 c 45,-56 28,36 11,14 0,0 -3,-4 -3,-4 -1,-1 -11,-7 -8,-10 z m -894,-180 c 114,54 243,94 319,177 -89,106 -76,119 -208,166 z m 422,-564 c 106,88 29,44 174,13 88,139 350,518 395,645 -54,31 -141,97 -232,105 -99,8 -738,-347 -825,-400 -98,52 -200,118 -243,211 76,77 64,102 166,23 l 230,636 c 45,204 23,70 -49,205 l 61,63 c 101,-35 168,-107 250,-189 16,-16 120,-83 -31,-121 l -98,-3 -43,-145 299,-228 c 185,87 61,73 121,192 79,157 -101,-69 34,37 111,-18 161,-156 304,-232 64,-34 83,-33 149,-72 160,-98 328,-211 481,-307 -39,-108 -93,-220 -189,-259 -104,56 -30,122 14,206 -93,61 -158,134 -283,175 -100,-205 -270,-395 -385,-614 17,-42 197,-290 -148,-95 -87,49 -128,51 -152,154 z"
   id="path489" />
   <path
   class="fil2"
   d="m 18843,13870 695,181 c -273,190 -733,86 -691,299 60,93 -49,20 102,77 38,14 112,26 152,37 98,28 182,53 275,78 64,17 219,52 279,76 231,93 -52,129 202,141 47,-89 23,-251 22,-367 -63,-8 -36,-28 -102,4 l -80,91 -570,-155 c 271,-138 650,-125 744,-270 -57,-118 -8,-60 -350,-143 -135,-33 -286,-49 -396,-108 l 571,-187 c 95,127 -49,109 158,111 8,-66 12,-118 11,-185 0,-8 -3,-92 -4,-96 -21,-135 23,64 -13,-54 l -23,-47 c -377,43 288,-4 -498,243 -446,140 -486,103 -484,274 z"
   id="path491" />
   <path
   class="fil2"
   d="m 10768,5652 -23,672 c -30,72 -141,-22 -116,179 l 386,6 c 1,-126 15,-65 -23,-112 l -73,-57 c -5,-3 -15,-10 -21,-16 l 10,-266 395,4 c 1,51 7,217 -9,258 -54,138 14,-17 -66,75 -39,44 -36,-8 -57,89 26,14 26,21 84,34 l 312,5 c -1,-133 12,-89 -74,-145 l 29,-719 c 100,-64 85,-37 67,-148 l -383,-13 c -2,95 -21,79 32,130 5,4 14,9 19,12 l 57,278 -399,-2 8,-264 c 11,-4 24,-17 28,-10 0,1 94,0 97,-139 l -397,-27 c 3,179 55,125 117,176 z"
   id="path493" />
   <path
   class="fil2"
   d="m 2013,14985 c 145,-17 46,6 91,-40 43,-44 -28,-8 55,-96 l 551,-44 c -53,58 -91,76 -148,125 -386,337 -562,360 -532,573 l 47,126 c 149,-21 56,-9 128,-132 l 672,-60 c 5,8 9,12 11,23 3,15 20,37 25,43 184,230 119,-239 109,-339 -76,-10 -50,-37 -112,14 -4,4 -9,12 -13,16 l -52,93 -566,48 573,-465 c 100,-75 134,-81 124,-238 l -863,28 c -19,-24 -18,-52 -75,-68 -38,-10 -36,-1 -69,3 -19,120 -5,310 44,390 z"
   id="path495" />
   <path
   class="fil2"
   d="m 3516,9713 458,262 c -34,20 3,8 -67,31 -21,7 -83,14 -106,16 l -711,36 -119,245 c 148,66 112,47 194,-32 l 612,344 c -20,106 -32,65 -15,160 173,13 91,50 186,-119 54,-96 64,-91 84,-209 -155,-43 -95,-31 -188,52 -117,-66 -399,-217 -496,-315 161,-14 320,-19 485,-28 244,-13 334,22 460,-73 -16,-146 73,-52 -206,-204 -673,-369 -456,-268 -507,-411 -22,-62 -52,-50 -96,-68 -239,371 -199,330 -121,365 135,59 -9,34 131,-40 5,-2 14,-9 22,-12 z"
   id="path497" />
   <path
   class="fil2"
   d="m 15360,22088 c -125,-45 -345,-193 -475,-272 -206,-127 -260,-239 -512,-47 41,141 44,98 160,79 l 307,623 c -64,145 -109,5 -50,170 24,9 -36,80 201,-46 97,-51 123,-35 151,-123 -144,-193 -78,139 -244,-221 -57,-125 -122,-252 -177,-374 417,156 654,542 906,402 l -363,-762 c -46,-13 104,-19 45,-195 -65,10 -354,124 -352,187 4,100 95,65 101,67 118,42 13,-115 169,216 49,102 98,184 133,296 z"
   id="path499" />
   <path
   class="fil2"
   d="m 18133,9394 c -99,38 -510,290 -564,358 l -52,-28 c -16,-7 -42,-26 -69,-30 -51,-9 -67,9 -111,30 23,74 47,113 90,180 l 196,126 c 58,-168 -148,-107 247,-307 62,116 149,201 202,342 -95,97 -131,95 -230,156 -107,-54 -33,-73 -129,-57 -101,18 -137,17 44,274 76,108 14,85 155,74 25,-54 -2,-84 7,-128 17,-84 -28,7 26,-55 9,-10 158,-99 178,-111 124,-70 239,-162 359,-224 l 46,24 c 83,39 70,52 169,-15 -29,-61 -67,-131 -98,-183 -5,-9 -48,-76 -50,-78 -53,-57 -19,-41 -102,-57 -87,92 -45,57 -21,188 -124,48 -95,75 -241,108 l -183,-330 c 63,-76 126,-101 204,-146 105,106 -13,45 116,76 l 74,-49 c -33,-101 -120,-294 -234,-319 -103,95 -67,26 -29,181 z"
   id="path501" />
   <path
   class="fil2"
   d="m 11973,5716 c -15,95 -87,631 -158,675 -74,45 -103,-91 -108,125 l 284,64 c 131,-7 39,9 93,-32 -2,-80 -19,-56 -53,-107 -52,-79 -46,-64 -13,-215 15,-69 25,-123 38,-189 l 64,-198 273,689 c 54,143 25,132 173,164 16,-22 21,-17 41,-68 l 150,-748 c 53,-25 93,3 144,-96 -50,-95 81,-28 -126,-83 -4,-1 -184,-30 -184,-30 -214,21 1,152 28,177 l -105,537 c -295,-336 -162,-890 -630,-834 -9,47 -37,62 22,125 5,5 15,11 20,15 z"
   id="path503" />
   <path
   class="fil2"
   d="m 15630,6995 c -79,72 -363,470 -417,570 -477,-86 42,242 109,243 14,-14 89,31 7,-151 -2,-4 -8,-14 -11,-22 50,-58 119,-158 152,-227 l 380,248 -176,251 c -117,-16 -64,-86 -159,48 63,82 182,161 279,214 103,-143 -17,-138 7,-213 l 418,-531 c 119,-39 -16,42 104,-6 l 60,-58 c -103,-73 -147,-154 -304,-213 -60,157 -37,39 25,189 -64,80 -98,157 -181,206 -113,-72 -257,-170 -340,-260 305,-467 138,-1 325,-268 -74,-63 -191,-172 -299,-207 -69,138 -33,73 21,187 z"
   id="path505" />
   <path
   class="fil2"
   d="m 5564,21585 c -128,-14 -77,-35 -158,-12 -22,146 -39,93 102,187 101,67 88,85 197,62 1,-10 0,-47 0,-47 l -50,-144 c 71,-54 118,-136 156,-218 111,47 296,158 374,260 -262,475 -147,88 -326,288 34,68 31,57 125,123 54,38 126,106 166,68 109,-105 -10,-90 -11,-155 l 324,-480 c 184,-281 114,67 244,-164 -89,-105 -201,-211 -325,-178 l 38,178 c -68,81 -66,114 -154,190 -127,-77 -247,-152 -343,-254 l 134,-208 c 48,0 276,64 142,-103 -39,-49 -202,-146 -253,-163 -141,247 161,28 -124,382 -75,94 -221,288 -258,388 z"
   id="path507" />
   <path
   class="fil2"
   d="m 16443,21523 c 102,156 235,100 119,-69 -71,-104 -155,-223 -226,-315 -96,55 -169,101 -261,173 -259,199 -266,102 -195,242 l 38,3 c 77,-18 206,-140 386,-233 43,517 -485,610 -695,311 -111,-158 -73,-382 35,-497 178,-192 265,-1 471,-169 l -112,-200 c -231,78 32,48 -253,154 -285,107 -452,457 -258,765 247,392 787,310 951,-165 z"
   id="path509" />
   <path
   class="fil2"
   d="m 2106,14092 c 0,-299 77,-520 387,-513 333,8 365,242 347,560 z m -125,265 c 168,-11 -2,-128 352,-98 60,5 451,1 460,53 1,12 8,18 11,22 4,5 17,34 23,41 32,33 -72,41 114,39 101,-271 147,-977 -449,-988 -482,-10 -529,411 -540,766 z"
   id="path511" />
   <path
   class="fil2"
   d="m 18792,15511 c 106,19 214,45 298,-10 -21,-116 29,-38 -90,-97 -6,-4 -17,-7 -23,-10 l -21,-308 305,21 -12,262 c 16,80 -6,17 32,66 133,-12 83,46 108,-122 9,-61 8,-121 19,-190 l 283,26 -146,328 c -8,3 -20,9 -26,12 -7,3 -18,7 -26,12 36,91 -116,87 300,97 16,-177 75,-565 42,-714 -165,-13 -82,-1 -126,48 l -698,2 c -117,-125 62,-108 -146,-132 -62,110 -88,555 -73,709 z"
   id="path513" />
   <path
   class="fil0"
   d="m 6852,21666 c -514,139 -309,873 169,727 408,-125 315,-857 -169,-727 z"
   id="path515" />
   <path
   class="fil2"
   d="m 19452,16461 c -335,30 -309,-133 -257,-404 l 383,80 c -26,176 -35,222 -126,324 z m -731,-402 c 124,21 79,0 176,-87 l 247,64 c -78,67 -215,108 -328,151 -66,25 -197,54 -202,181 -5,141 -5,42 28,94 277,4 -130,-49 383,-188 55,117 44,226 153,291 459,273 553,-408 604,-639 -166,-63 -101,-33 -181,72 l -672,-163 c -51,-102 16,-99 -96,-156 -57,33 -48,-18 -93,179 -23,98 -36,101 -19,201 z"
   id="path517" />
   <path
   class="fil2"
   d="m 2905,10983 375,21 -71,193 c -21,35 -29,36 -51,59 z m -184,-144 -111,267 c 44,33 45,47 115,27 l 85,-42 c 84,119 187,206 292,316 145,150 176,133 214,263 l 36,116 c 86,-17 53,1 99,-60 10,-15 122,-209 84,-274 -96,-161 -106,148 -220,-34 -49,-78 -29,-61 1,-143 33,-90 81,-189 136,-255 l 128,2 c 3,8 3,12 4,20 6,100 38,100 60,114 85,-20 25,22 84,-48 25,-30 103,-204 97,-296 -158,-49 -32,-19 -94,6 -83,34 59,26 -117,56 z"
   id="path519" />
   <path
   class="fil2"
   d="m 6852,21666 c 484,-130 577,602 169,727 -478,146 -683,-588 -169,-727 z m -446,455 c 105,655 1146,514 1028,-181 -109,-640 -1141,-526 -1028,181 z"
   id="path521" />
   <path
   class="fil2"
   d="m 2576,17296 c -72,-186 8,-259 205,-225 l 79,152 c -92,59 -184,115 -284,73 z m 405,-104 c -63,-200 -55,-349 184,-343 89,73 108,103 135,249 z m -171,-253 c -189,-61 -365,1 -389,194 -13,103 20,186 51,276 38,111 31,159 117,202 90,-40 22,19 60,-67 l 22,-91 649,-211 c 136,81 0,84 128,69 126,-14 -56,-387 -86,-440 -135,-234 -488,-241 -552,68 z"
   id="path523" />
   <path
   class="fil2"
   d="m 2077,13180 c 53,9 14,31 78,-7 123,-72 -40,32 82,-89 l 672,116 c 73,186 -94,106 150,146 l 118,-719 c -231,-25 -202,-62 -294,-4 10,155 -24,38 129,128 l -44,295 -305,-45 c 17,-215 122,-320 -74,-337 l -71,304 -271,-38 28,-312 c 147,-10 129,40 175,-59 4,-87 -84,-77 -286,-98 -18,117 -37,229 -58,348 -40,230 -73,266 -29,371 z"
   id="path525" />
   <path
   class="fil2"
   d="m 8632,5972 160,639 -72,60 c -38,64 -20,84 -12,127 l 696,-159 c -8,-110 -15,-233 -100,-286 -122,64 -49,4 -66,184 l -285,64 -90,-299 c 236,-68 342,-40 302,-154 -58,-72 44,-18 -58,-41 -77,-17 -197,35 -280,50 l -68,-273 316,-34 c 3,5 19,33 25,39 63,65 0,52 108,46 34,-81 -12,-177 -33,-283 -68,3 -652,121 -688,179 -64,106 109,114 145,141 z"
   id="path527" />
   <path
   class="fil2"
   d="m 2237,15967 c -58,-93 2,-77 -74,-98 -108,-30 -88,27 -86,104 0,4 34,152 37,163 41,145 -1,93 96,125 57,-31 40,-23 82,-134 2,-6 5,-17 9,-25 199,-51 459,-144 674,-117 261,418 -251,407 -578,503 -171,-84 75,-90 -160,-91 -72,99 9,191 35,382 153,-14 135,-14 128,-150 488,-93 870,-142 782,-538 -103,-462 -609,-180 -945,-124 z"
   id="path529" />
   <path
   class="fil2"
   d="m 11424,22941 c -40,-320 -67,-309 278,-302 28,52 19,68 30,88 41,78 -18,33 66,67 71,-72 37,94 52,-127 1,-22 -11,-144 -12,-178 -131,3 -260,14 -391,22 l -253,23 c -57,15 -48,16 -76,34 33,206 -33,29 129,128 14,152 21,295 34,447 38,451 -56,117 -99,353 57,45 -13,17 75,38 l 642,-38 c 0,-371 -11,-263 -69,-301 -72,39 -23,-14 -77,127 l -305,62 -13,-304 c 430,-21 270,9 310,-96 -65,-103 42,-49 -321,-43 z"
   id="path531" />
   <path
   class="fil2"
   d="m 14259,22025 c 82,-68 65,-136 54,-182 -91,2 -125,21 -212,53 -174,65 -118,17 -129,144 10,5 36,7 44,9 l 70,20 c 95,52 278,600 229,685 -4,7 -215,222 -353,-46 -46,-88 -209,-463 -179,-514 l 38,-63 c 60,-155 -132,-74 -203,-46 -121,49 -103,15 -143,100 105,175 98,-68 194,175 137,346 169,664 488,615 542,-81 239,-604 102,-950 z"
   id="path533" />
   <path
   class="fil2"
   d="m 16485,7558 c 14,104 19,18 47,145 l -449,502 c -142,-52 -104,-121 -186,47 l 538,452 c 84,-61 144,-131 187,-234 -174,-89 -80,-8 -209,50 -49,-58 -160,-153 -222,-214 59,-78 102,-152 175,-219 l 265,197 94,-100 -242,-179 c 53,-167 64,-132 176,-235 94,61 166,138 245,217 -91,113 -105,87 -23,188 84,-40 168,-128 203,-220 l -524,-470 z"
   id="path535" />
   <path
   class="fil2"
   d="m 18887,13077 c -30,-62 -77,-145 -30,-238 81,-161 157,36 87,-232 l -280,39 c 21,163 48,101 51,189 0,0 -83,460 336,421 161,-14 233,-102 261,-252 42,-226 -29,-333 225,-313 41,41 101,82 76,171 -50,174 -103,-21 -85,258 l 226,-31 c 36,-219 3,-664 -391,-544 -370,113 29,662 -476,532 z"
   id="path537" />
   <path
   class="fil2"
   d="m 4532,9211 c 139,187 31,314 -94,338 -133,26 -63,-34 -196,21 -28,119 -38,91 49,164 84,70 88,73 194,89 48,-147 -29,-80 46,-154 1,-1 363,-225 139,-501 -274,-339 -458,134 -728,85 -17,-11 -135,-141 17,-249 183,-109 120,71 260,-159 -31,-23 -49,-38 -88,-65 -88,-62 -26,-27 -103,-60 -33,37 1,-7 -41,58 -79,120 -407,295 -150,551 274,274 402,-165 695,-118 z"
   id="path539" />
   <path
   class="fil2"
   d="m 10467,6241 c -339,42 -204,244 -523,190 -361,-61 -439,-663 -51,-765 301,-79 211,130 492,77 l -34,-246 c -235,8 26,53 -278,21 -412,-43 -662,316 -571,672 122,482 823,537 965,51 z"
   id="path541" />
   <path
   class="fil2"
   d="m 3175,11936 c 24,92 38,213 -35,279 -134,122 -172,-56 -186,184 l 285,78 c 5,-33 3,-122 3,-125 14,-131 149,-168 89,-375 -50,-171 -287,-323 -473,-173 -102,82 -155,397 -340,316 -80,-35 -123,-146 -58,-231 101,-133 147,48 181,-193 l -211,-70 -35,72 c -59,132 -113,198 -105,318 9,142 126,249 269,259 397,27 218,-524 616,-339 z"
   id="path543" />
   <path
   class="fil2"
   d="m 16744,8640 c -82,61 -165,107 -206,208 62,55 46,61 137,43 63,260 342,417 546,200 230,-244 -112,-400 -39,-674 129,-30 225,-39 256,97 38,163 -74,77 84,231 l 172,-144 c -462,-695 -729,-198 -672,13 31,113 275,459 -39,426 -257,-27 -97,-246 -239,-400 z"
   id="path545" />
   <path
   class="fil0"
   d="m 2106,14092 734,47 c 18,-318 -14,-552 -347,-560 -310,-7 -387,214 -387,513 z"
   id="path547" />
   <path
   class="fil2"
   d="m 13575,6817 c -99,-165 46,-149 -146,-225 -70,68 -92,175 -115,294 250,46 32,-71 223,65 74,52 149,80 259,58 179,-37 329,-255 203,-455 -83,-130 -368,-176 -288,-365 35,-84 136,-120 222,-51 120,96 -37,116 170,207 73,-57 85,-129 106,-250 -338,-66 -209,-141 -422,-116 -159,18 -302,192 -212,389 41,89 551,358 209,503 -51,21 -56,23 -112,8 -90,-24 -52,-17 -97,-62 z"
   id="path549" />
   <path
   class="fil2"
   d="m 14998,7347 c -199,-168 -289,60 -505,-137 -309,-282 -9,-811 391,-646 200,83 146,252 336,322 l 127,-209 c -199,-120 -30,76 -228,-122 -66,-66 -168,-126 -282,-146 -290,-49 -485,108 -561,282 -233,537 437,973 722,656 z"
   id="path551" />
   <path
   class="fil2"
   d="m 18642,11926 c -144,-90 12,-128 -165,-83 -24,47 -31,-47 -23,101 l 92,280 c 42,-9 70,-7 95,-37 35,-42 10,-65 33,-120 l 263,-69 77,307 121,-18 -63,-338 272,-62 78,288 c -40,37 -216,109 -101,170 56,30 196,-30 271,-48 -17,-120 -53,-234 -84,-350 -42,-153 -51,-287 -131,-347 -269,81 148,96 -302,212 -142,36 -290,80 -433,114 z"
   id="path553" />
   <path
   class="fil2"
   d="m 4213,8530 c 115,153 178,217 279,143 -50,-162 -167,-16 -24,-244 132,33 200,120 289,204 110,105 138,168 265,245 -26,157 -49,64 -44,173 139,65 125,34 226,-80 89,-102 132,-106 81,-225 -92,-20 -83,-4 -151,53 l -516,-493 103,-115 c 8,7 54,50 71,57 l 61,11 c 4,1 15,0 22,-2 0,0 103,-12 -35,-151 -32,-32 -99,-72 -141,-96 -48,27 -21,6 -62,41 -31,26 -37,37 -65,66 -122,129 -293,257 -359,413 z"
   id="path555" />
   <path
   class="fil2"
   d="m 12329,22539 c 243,-20 89,-32 176,97 40,60 -10,55 118,25 l -47,-296 c -135,15 -571,77 -704,140 l 45,265 c 189,25 65,-50 137,-178 l 111,-14 124,694 -64,47 c -4,5 -12,12 -16,17 -3,5 -9,13 -11,18 -25,53 -12,30 -3,99 88,4 151,-9 244,-25 23,-4 86,-16 103,-25 152,-85 -76,-146 -79,-153 -3,-10 -15,-6 -23,-10 z"
   id="path557" />
   <path
   class="fil2"
   d="m 13225,22347 c 154,83 -25,135 177,148 26,-40 22,-10 20,-82 0,-29 -8,-50 -14,-76 -14,-63 -28,-98 -42,-163 l -692,176 86,306 c 131,-32 89,-25 96,-145 11,-177 -30,15 15,-68 156,-7 119,-42 167,165 205,880 49,325 36,632 66,50 -79,49 123,30 3,-1 96,-25 106,-28 274,-75 169,-131 -4,-193 l -168,-673 z"
   id="path559" />
   <path
   class="fil2"
   d="m 7587,6120 c 80,324 83,253 150,273 l 21,-92 c 0,-6 -2,-17 -1,-23 l 152,-126 227,683 c -82,104 -82,86 -60,172 108,7 298,-60 351,-134 -30,-55 -158,-107 -164,-115 l -192,-547 c -44,-233 -27,-43 18,-128 199,-76 111,2 124,13 42,34 3,16 45,58 66,66 -37,9 55,40 74,-95 50,17 -29,-299 z"
   id="path561" />
   <path
   class="fil2"
   d="m 6354,6728 c 69,249 218,360 212,191 -4,-104 -46,5 -23,-127 l 119,-61 323,624 c 0,0 -169,210 35,178 5,0 150,-73 155,-76 111,-65 78,-22 109,-113 -99,-115 -24,-43 -171,-42 -122,-282 -378,-580 -283,-669 116,-107 91,53 198,94 l -61,-303 z"
   id="path563" />
   <path
   class="fil2"
   d="m 18983,10884 -660,251 c -8,-8 -17,-27 -20,-21 -3,6 -15,-14 -18,-18 -37,-31 -16,-55 -109,-29 -43,147 147,423 199,684 364,-83 253,-87 273,-151 -92,-59 -68,-5 -175,-22 l -122,-300 674,-256 c 90,59 37,100 182,55 l -89,-273 c -42,-76 -15,-35 -61,-72 -109,52 -68,41 -74,152 z"
   id="path565" />
   <path
   class="fil2"
   d="m 18696,10342 -629,318 c -99,-86 -30,-116 -184,-43 35,117 97,264 183,346 276,-127 -159,-53 275,-270 132,-66 283,-125 388,-212 119,40 39,22 139,90 l 80,-65 c -179,-377 -107,-315 -256,-314 -35,95 -13,44 4,150 z"
   id="path567" />
   <path
   class="fil2"
   d="m 18566,17113 c -174,-59 119,-30 -168,-103 -21,120 -114,277 -76,370 121,15 53,10 126,-56 112,-101 343,-154 488,-169 115,219 207,247 224,415 13,134 -74,50 63,126 82,-55 134,-254 152,-372 l -108,-4 c -4,1 -13,5 -17,5 -3,1 -12,5 -15,5 l -29,8 c -79,-89 -171,-236 -223,-346 z"
   id="path569" />
   <path
   class="fil2"
   d="m 18454,16934 c 200,45 35,21 188,-61 77,27 642,203 648,245 1,13 6,19 8,25 27,61 18,74 77,109 57,-42 116,-162 125,-257 16,-169 13,-39 -17,-103 -147,-26 -21,-27 -138,69 -130,-46 -262,-89 -398,-136 -554,-190 -106,-122 -337,-236 -101,44 -140,220 -156,345 z"
   id="path571" />
   <path
   class="fil2"
   d="m 13151,5972 -187,646 c -105,29 -116,-40 -136,122 l 344,108 c 19,-114 29,-95 -33,-168 -3,-5 -12,-14 -15,-18 -4,-4 -12,-12 -17,-18 l 184,-641 c 127,-52 114,63 139,-127 l -341,-107 c -22,109 -36,88 12,149 z"
   id="path573" />
   <path
   class="fil0"
   d="m 19452,16461 c 91,-102 100,-148 126,-324 l -383,-80 c -52,271 -78,434 257,404 z"
   id="path575" />
   <path
   class="fil0"
   d="m 10547,23053 c 168,-4 205,-11 335,-55 94,-285 -11,-356 -326,-342 z"
   id="path577" />
   <path
   class="fil0"
   d="m 2981,17192 319,-94 c -27,-146 -46,-176 -135,-249 -239,-6 -247,143 -184,343 z"
   id="path579" />
   <path
   class="fil0"
   d="m 2576,17296 c 100,42 192,-14 284,-73 l -79,-152 c -197,-34 -277,39 -205,225 z"
   id="path581" />
   <path
   class="fil0"
   d="m 5596,7955 c -76,-83 -205,-123 -319,-177 l 111,343 c 132,-47 119,-60 208,-166 z"
   id="path583" />
   <path
   class="fil0"
   d="m 3158,11256 c 22,-23 30,-24 51,-59 l 71,-193 -375,-21 z"
   id="path585" />
   <path
   class="fil2"
   d="m 7261,21483 c 52,24 104,41 139,7 81,-173 7,-83 -14,-116 -101,-31 -88,3 -125,109 z"
   id="path587" />
   <path
   class="fil2"
   d="m 7040,21353 86,68 c 148,-159 51,-140 49,-147 -132,-45 -86,-37 -135,79 z"
   id="path589" />
  </g>
 </g>
</svg>
