<?xml version="1.0" encoding="UTF-8"?>
<!DOCTYPE svg PUBLIC "-//W3C//DTD SVG 1.1//EN" "http://www.w3.org/Graphics/SVG/1.1/DTD/svg11.dtd">
<!-- Creator: CorelDRAW X7 -->
<svg xmlns="http://www.w3.org/2000/svg" xml:space="preserve" width="210mm" height="297mm" version="1.1" style="shape-rendering:geometricPrecision; text-rendering:geometricPrecision; image-rendering:optimizeQuality; fill-rule:evenodd; clip-rule:evenodd"
viewBox="0 0 21000 29700"
 xmlns:xlink="http://www.w3.org/1999/xlink">
 <defs>
  <style type="text/css">
   <![CDATA[
    .fil2 {fill:#1E1A19}
    .fil1 {fill:#2D3484}
    .fil0 {fill:#FEFEFE}
   ]]>
  </style>
 </defs>
 <g id="Ebene_x0020_1">
  <metadata id="CorelCorpID_0Corel-Layer"/>
  <g id="_1680181377952">
   <path class="fil0" d="M18932 -8421c364,-5 257,-60 322,43 -40,105 119,76 -310,96l12 305 305 -62c54,-142 5,-89 78,-128 58,38 68,-70 68,302l-641 37c-88,-20 -18,7 -76,-38 43,-236 138,98 100,-352 -13,-153 -21,-295 -35,-447 -161,-100 -95,77 -128,-128 27,-18 18,-20 76,-35l253 -22c130,-8 259,-19 390,-23 2,34 14,156 12,179 -15,220 20,54 -51,127 -85,-35 -25,10 -67,-67 -10,-20 -2,-36 -29,-89 -346,-6 -319,-18 -279,302zm1017 299c7,5 19,0 23,10 2,7 231,68 79,153 -17,10 -81,21 -103,25 -93,17 -156,29 -244,25 -9,-69 -23,-46 2,-98 3,-5 8,-13 12,-19 3,-5 11,-11 16,-16l64 -48 -125 -694 -110 15c-72,127 52,203 -138,177l-44 -264c132,-64 569,-125 703,-141l47 296c-128,30 -77,36 -118,-24 -86,-129 67,-117 -176,-97l112 700zm-3207 -799l49 -17c180,-25 -161,0 55,-7 31,-1 104,10 140,13 154,167 284,606 434,770l72 -535c-124,-152 -100,83 -106,-160 92,-46 273,4 482,7 269,3 754,-63 708,375 -19,181 -107,196 -185,237l-81 52c169,301 165,201 274,256l-2 105 -190 10c-48,-71 -99,-132 -161,-221 -73,-103 -58,-137 -175,-225 -14,457 78,210 114,395 -76,56 -230,55 -302,41 -115,-22 -42,1 -96,-41 22,-188 -29,-31 126,-128l7 -720 -248 -4 -77 660c-2,22 -9,95 -14,112 -42,146 -3,34 -50,91 -139,-17 -121,-31 -179,-153l-210 -429c-52,-106 -51,-137 -137,-206l-61 553c124,88 106,46 106,160 -84,36 -293,9 -386,-32 5,-187 91,-84 130,-160l67 -639c-112,-163 -83,93 -104,-160zm3897 -64l168 672c173,62 279,118 5,193 -10,3 -103,28 -107,28 -202,19 -56,20 -122,-30 13,-306 169,249 -36,-632 -48,-207 -11,-172 -168,-164 -44,82 -4,-110 -14,67 -7,121 34,114 -96,145l-87 -306 692 -176c15,66 28,101 43,163 6,26 13,48 14,77 1,71 5,41 -21,82 -201,-14 -23,-66 -176,-148l-95 29zm-6724 -256c-113,-707 918,-820 1027,-180 119,695 -923,835 -1027,180zm7852 -96c137,346 441,869 -101,951 -319,48 -352,-269 -488,-616 -96,-243 -90,1 -195,-175 41,-84 23,-50 144,-99 70,-29 263,-110 202,45l-37 63c-31,51 132,426 178,514 139,269 350,53 354,47 49,-86 -134,-633 -230,-686l-69 -19c-8,-2 -35,-5 -44,-9 11,-128 -45,-79 129,-145 86,-32 121,-51 212,-52 11,45 28,114 -55,181zm-6635 -177c94,-1 284,58 351,145 -140,234 -64,-172 -241,317l388 156 82 -244c-75,-108 -110,-26 -46,-188 336,108 651,243 1031,311 -3,65 -3,114 -23,180 -48,154 -17,77 -85,110 -114,-64 -53,-28 -48,-178l-307 -80 -74 281c410,74 299,63 297,167 -113,80 -78,9 -340,-28l-74 283 290 80c7,-8 14,-29 17,-24 11,25 28,-109 107,-105 118,5 9,245 -7,294l-577 -138c-86,-25 -161,-15 -103,-119 77,-138 94,134 211,-307 37,-137 88,-274 96,-416l-218 -104c-41,109 -260,611 -244,683 12,59 94,17 40,179 -72,-17 -111,-33 -180,-59l-165 -92c122,-269 44,198 257,-349l-375 -158c-32,79 -104,194 -92,272l44 176c-85,-8 -128,-22 -204,-51 -142,-54 -124,-58 -144,-113l153 -76 245 -642c-111,-103 -102,13 -62,-163zm-238 -474c22,33 95,-57 14,116 -34,34 -87,17 -138,-6 37,-106 23,-141 124,-110zm7975 715c-35,-112 -85,-194 -133,-296 -157,-332 -51,-174 -170,-217 -6,-2 -97,33 -100,-67 -3,-63 286,-176 352,-186 58,175 -91,182 -45,194l362 763c-252,139 -489,-247 -905,-403 54,122 119,250 177,375 166,359 100,27 243,221 -27,87 -53,71 -150,123 -237,125 -177,54 -201,45 -60,-164 -14,-24 50,-170l-308 -622c-115,18 -118,61 -160,-80 252,-192 306,-80 513,47 129,80 350,227 475,273zm-8186 -815c2,7 99,-12 -48,148l-86 -68c48,-116 2,-125 134,-80zm9268 250c-163,475 -703,557 -950,164 -194,-307 -27,-658 258,-764 284,-106 22,-77 253,-154l112 200c-206,167 -293,-24 -472,168 -107,116 -145,339 -34,497 210,299 738,207 694,-310 -180,93 -308,214 -385,233l-38 -3c-71,-141 -64,-44 194,-243 93,-71 166,-118 261,-173 71,93 156,212 227,315 115,170 -17,226 -120,70zm-11037 50c81,-24 31,-2 159,12 36,-100 182,-295 258,-388 285,-355 -17,-136 123,-383 52,18 214,114 254,164 134,167 -94,102 -142,103l-135 208c96,101 216,176 344,253 88,-76 85,-109 154,-189l-39 -179c124,-32 236,74 325,179 -130,231 -59,-117 -243,163l-325 481c1,64 121,49 11,154 -40,39 -112,-30 -165,-67 -94,-66 -91,-56 -125,-124 179,-200 63,187 325,-288 -78,-101 -263,-213 -373,-259 -39,81 -86,164 -156,218l50 143c0,1 1,37 -1,48 -108,22 -95,4 -196,-63 -141,-94 -124,-41 -103,-186zm-2595 -4634c64,-309 416,-303 551,-69 31,53 213,426 86,441 -128,15 8,11 -128,-70l-648 212 -22 91c-38,85 29,26 -60,66 -86,-42 -79,-91 -117,-201 -32,-91 -65,-173 -52,-277 25,-193 200,-254 390,-193zm16173 52c52,110 143,257 222,347l29 -8c3,-1 12,-4 16,-5 3,-1 13,-5 17,-5l108 3c-18,119 -70,317 -152,372 -137,-75 -51,8 -64,-126 -16,-167 -108,-196 -224,-414 -145,14 -375,67 -487,169 -73,66 -5,70 -127,56 -38,-94 55,-250 76,-370 288,72 -5,43 168,102l418 -121zm362 -31c117,-96 -10,-94 137,-68 30,64 33,-67 18,103 -9,95 -68,215 -125,257 -60,-35 -51,-48 -77,-110 -2,-5 -7,-12 -9,-24 -5,-42 -570,-218 -648,-245 -152,81 12,106 -188,60 17,-125 56,-301 156,-345 231,114 -217,46 338,237 135,46 267,90 398,135zm436 -1035c-51,231 -144,913 -604,639 -108,-64 -97,-174 -152,-291 -514,139 -106,193 -384,189 -33,-52 -32,46 -27,-94 5,-128 135,-156 202,-181 112,-43 250,-85 327,-151l-246 -65c-97,88 -52,109 -177,87 -16,-99 -4,-102 19,-201 46,-197 37,-145 94,-178 111,56 45,53 96,156l671 162c81,-104 16,-134 181,-72zm-17544 41c335,-56 841,-338 944,125 89,396 -294,445 -781,537 6,136 25,137 -128,151 -26,-191 -108,-284 -35,-383 234,1 -11,7 160,91 326,-95 839,-85 578,-503 -216,-27 -476,66 -674,118 -4,7 -7,19 -9,25 -43,111 -25,102 -83,133 -96,-31 -54,20 -96,-125 -3,-11 -36,-159 -36,-163 -2,-77 -23,-134 85,-104 77,22 16,6 75,98zm16555 -456c-16,-153 10,-599 73,-709 208,24 28,7 146,132l698 -2c43,-49 -40,-61 125,-48 34,150 -26,537 -42,714 -415,-9 -264,-5 -299,-96 8,-6 19,-10 25,-13 7,-2 18,-8 26,-11l147 -329 -283 -25c-12,68 -10,128 -19,190 -26,167 24,109 -108,122 -38,-49 -16,14 -32,-67l12 -262 -305 -21 20 309c7,3 17,6 24,9 119,60 69,-18 90,98 -84,54 -193,28 -298,9zm-8680 -8654c1653,-184 3352,181 4726,1001l574 385c430,289 489,403 775,662l1123 1276c714,1075 1135,2067 1282,3516 200,1983 -296,3719 -1381,5268l-890 1026c-571,490 -875,828 -1638,1242 -1924,1045 -4254,1268 -6334,535 -747,-264 -1854,-869 -2417,-1424 -180,-179 -334,-286 -495,-463 -153,-168 -293,-309 -464,-497l-409 -550c-139,-202 -248,-362 -372,-587 -495,-901 -784,-1738 -913,-2918 -223,-2025 295,-3712 1372,-5280 133,-194 273,-381 422,-536 703,-733 1210,-1240 2103,-1736 908,-505 1730,-785 2936,-920zm-7268 8430l52 -92c4,-5 9,-13 14,-17 61,-51 35,-23 112,-13 10,100 75,569 -110,339 -5,-7 -21,-28 -24,-43 -2,-12 -7,-16 -12,-23l-671 60c-73,122 20,110 -128,132l-47 -126c-30,-213 146,-237 531,-573 57,-50 96,-68 148,-126l-550 45c-84,88 -13,52 -55,95 -45,46 54,24 -91,40 -50,-80 -64,-270 -45,-390 34,-3 32,-12 70,-2 56,15 56,43 75,67l863 -28c9,157 -25,164 -124,239l-574 464 566 -48zm-893 -1095c11,-355 59,-775 541,-766 596,11 549,717 448,989 -185,2 -81,-7 -113,-40 -6,-6 -20,-35 -23,-41 -3,-4 -10,-10 -12,-21 -9,-53 -400,-49 -459,-54 -355,-30 -184,88 -352,99l-30 -166zm16892 -321c-2,-171 37,-135 483,-275 787,-247 121,-200 498,-242l23 46c36,118 -8,-81 14,55 0,4 4,88 4,95 0,68 -4,119 -11,186 -207,-3 -64,15 -159,-112l-570 187c110,60 260,75 396,108 342,84 293,26 349,144 -94,145 -472,132 -743,270l569 155 81 -92c65,-32 38,-11 101,-3 1,116 26,278 -22,367 -253,-12 29,-49 -201,-141 -60,-25 -215,-59 -279,-76 -93,-25 -178,-51 -275,-78 -40,-11 -115,-24 -153,-38 -150,-56 -41,16 -101,-76 -42,-213 417,-110 690,-300l-694 -180zm44 -793c504,129 106,-420 475,-532 395,-120 427,325 391,543l-225 32c-18,-279 35,-85 84,-258 26,-90 -34,-130 -75,-172 -254,-19 -183,87 -225,313 -28,150 -101,238 -261,253 -419,38 -336,-421 -336,-422 -3,-88 -30,-26 -51,-189l280 -39c69,269 -6,71 -88,233 -46,92 0,175 31,238zm-16810 102c-44,-105 -11,-140 29,-370 21,-120 40,-231 57,-349 203,21 291,11 286,99 -46,99 -27,49 -175,59l-27 311 270 38 72 -303c196,17 90,121 73,336l306 45 44 -294c-154,-91 -119,27 -130,-128 92,-59 64,-21 295,3l-119 720c-243,-41 -77,40 -149,-146l-672 -117c-123,121 41,17 -82,90 -64,37 -25,16 -78,6zm16564 -1253c144,-35 292,-78 434,-115 449,-115 33,-131 302,-212 79,61 89,195 130,348 32,116 67,229 85,349 -75,18 -215,78 -271,48 -115,-61 61,-132 101,-169l-78 -289 -273 63 64 338 -121 18 -78 -308 -263 69c-22,56 2,78 -33,121 -25,29 -52,27 -95,36l-92 -280c-8,-148 0,-54 24,-101 177,-45 20,-6 164,84zm-15466 9c-399,-185 -219,367 -617,339 -142,-9 -259,-117 -268,-259 -8,-120 46,-186 104,-317l36 -72 210 69c-33,242 -79,60 -180,193 -65,85 -22,196 57,231 185,82 238,-233 340,-315 186,-151 423,1 473,172 61,207 -74,245 -89,376 0,3 2,92 -2,125l-286 -78c15,-240 53,-63 187,-184 73,-66 59,-188 35,-280zm438 -1061c176,-31 35,-23 118,-57 62,-25 -64,-54 94,-5 5,92 -73,265 -98,295 -58,70 1,29 -83,48 -22,-14 -55,-13 -61,-114 0,-7 -1,-11 -3,-19l-128 -3c-56,66 -103,165 -137,256 -30,81 -49,65 0,143 114,181 124,-127 219,34 38,64 -73,259 -84,273 -45,62 -13,43 -98,61l-37 -116c-38,-131 -69,-114 -213,-264 -105,-110 -209,-196 -293,-316l-84 42c-70,20 -71,6 -116,-27l112 -267 892 36zm14689 239c3,-6 13,13 20,22l660 -251c6,-112 -34,-101 75,-153 45,37 18,-3 61,72l89 274c-145,44 -92,4 -182,-55l-674 256 121 299c108,17 84,-36 176,23 -20,64 90,67 -274,150 -52,-261 -242,-537 -199,-683 94,-26 72,-3 109,29 4,3 16,23 18,17zm-420 -496c155,-74 86,-43 184,42l629 -317c-17,-107 -39,-56 -3,-151 149,-1 77,-63 255,315l-80 64c-99,-68 -19,-50 -139,-89 -105,86 -256,145 -387,211 -435,218 0,144 -275,270 -86,-81 -148,-229 -184,-345zm-14366 -905c-8,3 -17,10 -22,13 -141,73 4,99 -131,39 -79,-34 -119,6 120,-364 45,18 75,6 97,67 51,143 -166,43 507,411 278,153 190,58 206,205 -126,94 -216,60 -460,73 -165,8 -324,14 -485,27 96,98 379,249 496,315 92,-82 32,-94 188,-51 -20,118 -30,112 -85,209 -95,168 -13,132 -186,119 -17,-96 -5,-54 15,-160l-612 -345c-81,80 -46,99 -194,32l120 -244 710 -37c23,-1 86,-8 107,-15 70,-23 32,-12 67,-32l-458 -262zm14053 40c53,-69 465,-320 564,-358 -39,-156 -74,-86 29,-182 113,25 201,219 234,320l-75 49c-128,-31 -10,29 -115,-77 -78,46 -142,70 -204,147l182 330c147,-33 118,-61 241,-108 -24,-132 -65,-97 22,-189 83,17 49,0 102,58 1,1 44,69 50,78 30,52 68,122 97,182 -98,68 -85,54 -169,16l-46 -24c-120,61 -234,153 -358,224 -20,11 -169,100 -178,111 -55,62 -9,-30 -26,54 -9,44 18,75 -8,128 -141,12 -78,34 -154,-73 -182,-258 -145,-257 -44,-274 95,-16 22,2 129,57 99,-61 135,-60 230,-156 -54,-141 -140,-227 -203,-342 -395,199 -189,139 -247,306l-196 -125c-42,-68 -67,-107 -89,-181 43,-21 59,-39 111,-30 26,5 53,24 68,31l53 28zm-13038 -541c-292,-47 -421,391 -695,118 -257,-256 72,-431 150,-552 42,-64 9,-21 42,-58 77,33 14,-2 103,60 39,27 57,43 88,65 -140,231 -78,51 -260,160 -152,107 -35,237 -17,248 270,50 453,-423 728,-85 223,276 -138,501 -139,501 -75,74 2,7 -46,155 -106,-16 -110,-20 -194,-90 -87,-72 -78,-45 -49,-164 133,-54 63,6 196,-20 125,-25 233,-151 93,-338zm12213 -572c142,155 -18,373 239,400 313,34 69,-313 39,-426 -58,-211 210,-707 672,-13l-172 145c-158,-155 -47,-69 -84,-232 -32,-136 -127,-126 -256,-97 -74,274 268,431 39,675 -204,216 -484,60 -546,-200 -92,17 -75,11 -137,-44 40,-100 124,-146 206,-208zm-12531 -109c66,-156 237,-284 359,-413 27,-29 34,-40 65,-66 41,-35 14,-14 62,-41 42,24 108,63 140,96 139,138 36,150 35,150 -7,2 -17,3 -21,3l-62 -12c-16,-7 -62,-49 -71,-56l-103 115 517 493c67,-58 59,-74 151,-54 50,120 8,124 -82,226 -100,114 -86,145 -225,79 -6,-109 18,-15 44,-173 -127,-76 -156,-139 -266,-244 -88,-85 -156,-171 -288,-205 -143,228 -27,82 23,245 -101,73 -164,10 -278,-143zm11869 -326l449 -501c-28,-127 -33,-41 -47,-146l76 -72 524 469c-36,92 -119,181 -203,220 -83,-101 -68,-74 23,-188 -80,-78 -151,-156 -245,-216 -112,103 -124,68 -176,234l242 180 -95 100 -264 -197c-73,67 -116,141 -176,219 63,60 174,156 223,213 129,-58 35,-139 209,-50 -43,103 -104,174 -187,235l-538 -452c82,-169 44,-99 185,-48zm-10383 -991c23,-102 64,-105 152,-154 345,-194 165,54 147,96 116,219 285,408 385,614 126,-42 191,-115 284,-176 -44,-83 -119,-149 -14,-206 96,39 149,151 189,260 -153,95 -321,209 -482,306 -65,40 -84,38 -149,73 -142,76 -193,214 -304,231 -134,-106 46,121 -33,-36 -61,-120 63,-106 -121,-193l-299 229 42 145 99 3c151,38 47,104 30,121 -81,81 -148,154 -250,189l-60 -64c71,-135 94,0 49,-204l-230 -637c-102,80 -90,55 -166,-23 43,-92 144,-159 243,-210 86,52 726,407 825,399 90,-7 178,-74 232,-104 -45,-127 -307,-506 -396,-645 -145,30 -67,74 -173,-14zm482 758c17,22 35,-70 -10,-14l10 14zm9032 -406c54,-100 338,-499 416,-570 -54,-114 -89,-49 -20,-187 108,34 224,143 298,206 -186,267 -19,-198 -324,269 83,89 226,188 340,259 83,-49 116,-126 180,-205 -62,-151 -84,-32 -24,-189 157,58 201,140 304,212l-60 58c-121,48 15,-32 -105,7l-417 531c-24,75 95,69 -7,213 -97,-54 -216,-133 -279,-215 95,-134 41,-63 159,-48l175 -251 -380 -248c-32,70 -102,169 -151,227 2,8 9,18 11,23 81,181 7,136 -7,150 -67,0 -586,-328 -109,-242zm-8247 -1141l62 303c-107,-41 -82,-202 -198,-94 -96,89 161,386 283,668 147,-1 72,-73 170,43 -31,91 2,48 -108,112 -5,3 -150,76 -155,77 -205,31 -35,-179 -35,-179l-324 -623 -119 60c-22,132 19,24 23,127 7,170 -142,58 -211,-190l612 -304zm8032 923c-285,316 -956,-120 -722,-656 76,-174 271,-331 560,-282 115,19 217,80 283,146 198,197 29,1 228,122l-127 209c-190,-70 -136,-240 -337,-322 -400,-165 -699,363 -390,646 215,197 306,-31 505,137zm-1424 -531c45,45 7,38 97,62 57,15 62,13 112,-8 342,-144 -168,-413 -208,-502 -91,-197 53,-371 212,-390 213,-25 83,51 422,117 -21,120 -33,193 -106,249 -207,-91 -50,-110 -170,-207 -86,-69 -187,-32 -223,51 -80,190 205,235 288,366 127,199 -23,417 -202,454 -110,23 -186,-5 -259,-58 -191,-136 27,-19 -223,-65 22,-119 45,-226 115,-293 191,75 47,59 145,224zm-5291 -921c80,315 104,203 30,299 -93,-32 10,26 -56,-41 -41,-41 -3,-23 -44,-57 -13,-12 75,-90 -124,-14 -46,85 -62,-105 -18,128l191 547c7,9 135,60 164,115 -52,74 -242,142 -350,135 -22,-86 -22,-69 59,-172l-226 -684 -153 126c0,7 2,17 1,24l-20 91c-68,-19 -70,51 -150,-273l696 -224zm4545 844c19,-161 31,-93 136,-122l186 -645 -49 -54c-49,-62 -35,-40 -12,-150l341 108c-25,189 -12,75 -140,126l-183 641c4,7 13,15 16,19 3,3 12,13 16,17 61,74 52,54 33,168l-344 -108zm-4196 -767c-36,-27 -209,-36 -145,-141 35,-59 619,-177 687,-180 22,107 68,202 34,283 -109,7 -46,19 -108,-45 -7,-7 -22,-34 -26,-40l-315 34 68 274c83,-15 203,-67 279,-50 103,22 1,-32 59,40 40,114 -67,87 -302,155l90 299 285 -65c17,-179 -56,-119 66,-183 85,53 92,176 100,285l-697 159c-8,-43 -26,-63 13,-127l72 -59 -160 -639zm3183 418c70,-43 142,-579 158,-674l-48 -29c-5,-5 -15,-10 -19,-16 -60,-62 -32,-78 -22,-125 468,-56 335,498 629,835l106 -537c-28,-26 -243,-156 -29,-177 0,0 180,28 185,29 207,56 76,-11 126,84 -52,98 -91,70 -145,96l-150 747c-19,51 -24,46 -41,68 -147,-32 -118,-21 -172,-163l-274 -690 -64 198c-12,66 -22,120 -37,190 -33,151 -40,135 13,214 34,52 51,27 53,107 -55,41 37,26 -94,32l-283 -64c5,-216 33,-79 108,-125zm-1348 -149c-142,485 -843,431 -966,-51 -91,-356 160,-715 572,-672 304,32 43,-14 278,-22l33 246c-280,53 -190,-155 -492,-76 -388,101 -310,703 52,765 318,53 184,-149 523,-190zm162 262c-25,-201 86,-108 116,-180l22 -671c-61,-51 -113,3 -116,-176l397 27c-4,139 -97,140 -98,139 -3,-7 -17,5 -28,10l-8 263 400 2 -58 -277c-5,-4 -14,-8 -18,-13 -53,-51 -34,-34 -32,-130l383 14c17,110 33,83 -68,148l-29 718c86,56 74,12 74,146l-312 -6c-57,-12 -57,-19 -83,-34 20,-97 18,-44 56,-88 81,-92 12,62 67,-76 16,-40 10,-207 8,-257l-394 -5 -11 266c7,7 17,13 22,17l73 56c38,48 23,-13 23,113l-386 -6zm9502 8550c168,-1973 -456,-4270 -1638,-5864 -160,-216 -317,-451 -505,-645l-274 -301c-205,-210 -367,-399 -594,-592 -112,-95 -174,-161 -297,-277l-317 -257c-210,-186 -1167,-776 -1408,-895 -1161,-571 -2183,-873 -3647,-968 -1953,-126 -3946,366 -5497,1397 -419,279 -962,655 -1299,1005 -423,440 -716,686 -1127,1205 -1993,2519 -2416,6003 -1276,9023 687,1819 2318,3691 4040,4658 635,357 1283,642 2027,853 1954,555 4181,410 5997,-292 1742,-674 3425,-2101 4418,-3672 872,-1379 1247,-2607 1397,-4378z"/>
   <path class="fil0" d="M12362 -13398c94,-82 401,-236 533,-304 285,-147 1555,-869 1664,-867 139,182 233,383 404,558 424,432 432,514 1025,926 205,143 392,240 639,354 739,342 1681,441 2518,322 272,-38 572,-149 788,-176l425 1106 -935 242c-64,391 -61,1258 -251,1311 -421,118 -1220,-5 -1617,-25l-166 -1310c-146,-21 -300,-58 -445,-95 -141,-37 -319,-108 -451,-130 -129,112 -750,946 -789,1035 -249,-65 -931,-427 -1141,-600l-332 -268 508 -1224c-226,-221 -442,-376 -628,-638 -391,78 -866,401 -1263,499l-454 -646c-28,-55 -3,2 -32,-70zm5059 -9046c27,-247 63,-492 95,-741 70,-536 2,-579 222,-608 389,-52 1222,-89 1542,60 63,63 117,941 157,1159 53,288 392,136 950,386 -51,188 -295,1038 -376,1139 -1088,-407 -2314,-344 -3368,95 -531,221 -867,494 -1218,797 -466,401 -441,482 -695,806 -93,120 -117,173 -189,284 -152,-79 -2096,-1158 -2172,-1238 50,-102 171,-283 236,-370l259 -313c2,-9 10,-10 16,-15l1183 495 673 -660c-46,-271 -397,-954 -507,-1253 391,-294 872,-625 1465,-816 150,138 257,336 412,506 114,126 289,383 368,519l947 -232zm3143 -387c-35,-327 223,-418 535,-400 274,15 457,161 665,277 412,231 805,504 1134,754 636,483 1259,1226 1707,2066 1147,2155 1065,5432 -456,7358 -383,485 -430,547 -896,989 -428,405 -1154,863 -1688,1127 -233,115 -461,232 -763,85 -232,-113 -249,-437 -111,-672l503 -456c167,-163 569,-611 450,-897 -95,-228 -545,-68 -1583,-784 -1061,-732 -1074,-1132 -2071,-1671 -1061,-574 -1924,-495 -3048,-118 -546,183 -794,423 -1483,395 -1940,-81 -2795,-2619 -1223,-3772 653,-478 1446,-608 2210,-249 407,191 960,345 1465,422 950,145 1771,-134 2512,-671 418,-302 346,-267 737,-670 1120,-1156 2320,-1356 2373,-1400 217,-180 -31,-527 -132,-673 -288,-418 -401,-447 -703,-706 -85,-73 -115,-166 -134,-334zm-2733 -1328c-1482,104 -2570,558 -3667,1334 -503,355 -1267,1132 -1628,1600 -391,506 -741,1155 -977,1772 -695,1815 -588,4367 396,6053 683,1171 1135,1658 2137,2435 184,142 337,260 540,387 1285,801 2841,1134 4419,1020 2693,-195 4234,-1580 5484,-3186 245,-314 625,-1094 787,-1513 743,-1920 568,-4230 -383,-6052 -380,-728 -1026,-1513 -1645,-2033 -232,-195 -88,-129 -485,-410 -680,-483 -894,-649 -1768,-981 -984,-374 -2066,-507 -3210,-426z"/>
   <path class="fil1" d="M21359 -19899c860,-105 1635,7 2246,573 483,448 800,1286 876,1971 103,910 -112,1680 -523,2308 -386,592 -793,979 -1804,1043 -1117,71 -1579,-146 -2196,-684 -202,-177 -459,-509 -613,-826 -585,-1205 -470,-2256 244,-3295 335,-488 905,-984 1770,-1090zm-6204 2047c972,-264 939,1168 787,1505 -250,554 -1286,584 -1290,-375 -1,-391 -94,-968 503,-1130zm-1851 -351c312,-64 776,66 793,361 6,106 -95,358 -124,485 -38,172 -59,384 -51,569 12,283 211,914 171,1050 -77,263 -571,351 -899,265 -1355,-357 -1403,-2423 110,-2730zm9949 6416c466,-442 513,-504 896,-989 1521,-1926 1603,-5203 456,-7358 -448,-840 -1071,-1583 -1707,-2066 -329,-250 -722,-523 -1134,-754 -208,-116 -391,-262 -665,-277 -312,-18 -570,73 -535,400 19,168 49,261 134,334 302,259 415,288 703,706 101,146 349,493 132,673 -53,44 -1253,244 -2373,1400 -391,403 -319,368 -737,670 -741,537 -1562,816 -2512,671 -505,-77 -1058,-231 -1465,-422 -764,-359 -1557,-229 -2210,249 -1572,1153 -717,3691 1223,3772 689,28 937,-212 1483,-395 1124,-377 1987,-456 3048,118 997,539 1010,939 2071,1671 1038,716 1488,556 1583,784 119,286 -283,734 -450,897l-503 456c-138,235 -121,559 111,672 302,147 530,30 763,-85 534,-264 1260,-722 1688,-1127z"/>
   <path class="fil0" d="M21359 -19899c-865,106 -1435,602 -1770,1090 -714,1039 -829,2090 -244,3295 154,317 411,649 613,826 617,538 1079,755 2196,684 1011,-64 1418,-451 1804,-1043 411,-628 626,-1398 523,-2308 -76,-685 -393,-1523 -876,-1971 -611,-566 -1386,-678 -2246,-573z"/>
   <path class="fil1" d="M27640 -16308c-150,1771 -525,2999 -1397,4378 -993,1571 -2676,2998 -4418,3672 -1816,702 -4043,847 -5997,292 -744,-211 -1392,-496 -2027,-853 -1722,-967 -3353,-2839 -4040,-4658 -1140,-3020 -717,-6504 1276,-9023 411,-519 704,-765 1127,-1205 337,-350 880,-726 1299,-1005 1551,-1031 3544,-1523 5497,-1397 1464,95 2486,397 3647,968 241,119 1198,709 1408,895l317 257c123,116 185,182 297,277 227,193 389,382 594,592l274 301c188,194 345,429 505,645 1182,1594 1806,3891 1638,5864zm-18821 -1066l0 1009c13,40 123,1280 296,1936 241,918 820,2305 1424,3051 185,228 298,426 490,630l530 590 1196 1041c410,295 872,592 1387,852 774,393 1642,681 2527,830l997 135c7,2 18,6 27,10l1464 0 243 -47c85,-8 165,-16 253,-26 488,-58 915,-144 1390,-271 2595,-693 4857,-2709 6039,-5089 247,-498 436,-1036 596,-1611 155,-557 302,-1864 327,-1916l0 -1318 -146 -1021c-199,-1217 -858,-2971 -1679,-3922 -176,-204 -328,-428 -494,-624 -407,-480 -1289,-1292 -1772,-1616 -1313,-883 -2348,-1353 -3984,-1610 -206,-33 -903,-74 -1008,-116l-1022 0c-304,117 -2162,-37 -4392,1333 -127,78 -238,138 -358,217l-952 743c-194,188 -390,329 -590,529 -1430,1433 -2387,3266 -2684,5277 -33,219 -63,871 -105,1004z"/>
   <path class="fil1" d="M17831 -24159c1144,-81 2226,52 3210,426 874,332 1088,498 1768,981 397,281 253,215 485,410 619,520 1265,1305 1645,2033 951,1822 1126,4132 383,6052 -162,419 -542,1199 -787,1513 -1250,1606 -2791,2991 -5484,3186 -1578,114 -3134,-219 -4419,-1020 -203,-127 -356,-245 -540,-387 -1002,-777 -1454,-1264 -2137,-2435 -984,-1686 -1091,-4238 -396,-6053 236,-617 586,-1266 977,-1772 361,-468 1125,-1245 1628,-1600 1097,-776 2185,-1230 3667,-1334zm-210 -346c-1206,135 -2028,415 -2936,920 -893,496 -1400,1003 -2103,1736 -149,155 -289,342 -422,536 -1077,1568 -1595,3255 -1372,5280 129,1180 418,2017 913,2918 124,225 233,385 372,587l409 550c171,188 311,329 464,497 161,177 315,284 495,463 563,555 1670,1160 2417,1424 2080,733 4410,510 6334,-535 763,-414 1067,-752 1638,-1242l890 -1026c1085,-1549 1581,-3285 1381,-5268 -147,-1449 -568,-2441 -1282,-3516l-1123 -1276c-286,-259 -345,-373 -775,-662l-574 -385c-1374,-820 -3073,-1185 -4726,-1001z"/>
   <path class="fil1" d="M17421 -22444l-947 232c-79,-136 -254,-393 -368,-519 -155,-170 -262,-368 -412,-506 -593,191 -1074,522 -1465,816 110,299 461,982 507,1253l-673 660 -1183 -495c-6,5 -14,6 -16,15l-259 313c-65,87 -186,268 -236,370 76,80 2020,1159 2172,1238 72,-111 96,-164 189,-284 254,-324 229,-405 695,-806 351,-303 687,-576 1218,-797 1054,-439 2280,-502 3368,-95 81,-101 325,-951 376,-1139 -558,-250 -897,-98 -950,-386 -40,-218 -94,-1096 -157,-1159 -320,-149 -1153,-112 -1542,-60 -220,29 -152,72 -222,608 -32,249 -68,494 -95,741z"/>
   <path class="fil1" d="M12362 -13398c29,72 4,15 32,70l454 646c397,-98 872,-421 1263,-499 186,262 402,417 628,638l-508 1224 332 268c210,173 892,535 1141,600 39,-89 660,-923 789,-1035 132,22 310,93 451,130 145,37 299,74 445,95l166 1310c397,20 1196,143 1617,25 190,-53 187,-920 251,-1311l935 -242 -425 -1106c-216,27 -516,138 -788,176 -837,119 -1779,20 -2518,-322 -247,-114 -434,-211 -639,-354 -593,-412 -601,-494 -1025,-926 -171,-175 -265,-376 -404,-558 -109,-2 -1379,720 -1664,867 -132,68 -439,222 -533,304z"/>
   <path class="fil0" d="M13304 -18203c-1513,307 -1465,2373 -110,2730 328,86 822,-2 899,-265 40,-136 -159,-767 -171,-1050 -8,-185 13,-397 51,-569 29,-127 130,-379 124,-485 -17,-295 -481,-425 -793,-361z"/>
   <path class="fil0" d="M15155 -17852c-597,162 -504,739 -503,1130 4,959 1040,929 1290,375 152,-337 185,-1769 -787,-1505z"/>
   <path class="fil2" d="M18064 -8705c316,-15 420,56 327,342 -130,44 -167,51 -336,55l9 -397zm-1218 -240c-216,7 125,-18 -55,7l-49 17c21,253 -8,-3 104,160l-67 639c-39,76 -125,-27 -130,160 93,41 302,68 386,32 0,-114 18,-72 -106,-160l61 -553c86,69 85,100 137,206l210 429c58,122 40,136 179,153 47,-57 8,55 50,-91 5,-17 12,-90 14,-112l77 -660 248 4 -7 720c-155,97 -104,-60 -126,128 54,42 -19,19 96,41 72,14 226,15 302,-41 -36,-185 -128,62 -114,-395 117,88 102,122 175,225 62,89 113,150 161,221l190 -10 2 -105c-109,-55 -105,45 -274,-256l81 -52c78,-41 166,-56 185,-237 46,-438 -439,-372 -708,-375 -209,-3 -390,-53 -482,-7 6,243 -18,8 106,160l-72 535c-150,-164 -280,-603 -434,-770 -36,-3 -109,-14 -140,-13z"/>
   <path class="fil2" d="M15483 -9369c-67,-87 -257,-146 -351,-145 -40,176 -49,60 62,163l-245 642 -153 76c20,55 2,59 144,113 76,29 119,43 204,51l-44 -176c-12,-78 60,-193 92,-272l375 158c-213,547 -135,80 -257,349l165 92c69,26 108,42 180,59 54,-162 -28,-120 -40,-179 -16,-72 203,-574 244,-683l218 104c-8,142 -59,279 -96,416 -117,441 -134,169 -211,307 -58,104 17,94 103,119l577 138c16,-49 125,-289 7,-294 -79,-4 -96,130 -107,105 -3,-5 -10,16 -17,24l-290 -80 74 -283c262,37 227,108 340,28 2,-104 113,-93 -297,-167l74 -281 307 80c-5,150 -66,114 48,178 68,-33 37,44 85,-110 20,-66 20,-115 23,-180 -380,-68 -695,-203 -1031,-311 -64,162 -29,80 46,188l-82 244 -388 -156c177,-489 101,-83 241,-317z"/>
   <path class="fil2" d="M13680 -23404c45,-56 27,36 10,14 0,0 -3,-3 -3,-4 0,0 -10,-7 -7,-10zm-895 -179c115,53 244,93 320,176 -90,106 -76,119 -208,166l-112 -342zm423 -565c106,88 28,44 173,14 89,139 351,518 396,645 -54,30 -142,97 -232,104 -99,8 -739,-347 -825,-399 -99,51 -200,118 -243,210 76,78 64,103 166,23l230 637c45,204 22,69 -49,204l60 64c102,-35 169,-108 250,-189 17,-17 121,-83 -30,-121l-99 -3 -42 -145 299 -229c184,87 60,73 121,193 79,157 -101,-70 33,36 111,-17 162,-155 304,-231 65,-35 84,-33 149,-73 161,-97 329,-211 482,-306 -40,-109 -93,-221 -189,-260 -105,57 -30,123 14,206 -93,61 -158,134 -284,176 -100,-206 -269,-395 -385,-614 18,-42 198,-290 -147,-96 -88,49 -129,52 -152,154z"/>
   <path class="fil2" d="M26352 -17491l694 180c-273,190 -732,87 -690,300 60,92 -49,20 101,76 38,14 113,27 153,38 97,27 182,53 275,78 64,17 219,51 279,76 230,92 -52,129 201,141 48,-89 23,-251 22,-367 -63,-8 -36,-29 -101,3l-81 92 -569 -155c271,-138 649,-125 743,-270 -56,-118 -7,-60 -349,-144 -136,-33 -286,-48 -396,-108l570 -187c95,127 -48,109 159,112 7,-67 11,-118 11,-186 0,-7 -4,-91 -4,-95 -22,-136 22,63 -14,-55l-23 -46c-377,42 289,-5 -498,242 -446,140 -485,104 -483,275z"/>
   <path class="fil2" d="M18276 -25709l-22 671c-30,72 -141,-21 -116,180l386 6c0,-126 15,-65 -23,-113l-73 -56c-5,-4 -15,-10 -22,-17l11 -266 394 5c2,50 8,217 -8,257 -55,138 14,-16 -67,76 -38,44 -36,-9 -56,88 26,15 26,22 83,34l312 6c0,-134 12,-90 -74,-146l29 -718c101,-65 85,-38 68,-148l-383 -14c-2,96 -21,79 32,130 4,5 13,9 18,13l58 277 -400 -2 8 -263c11,-5 25,-17 28,-10 1,1 94,0 98,-139l-397 -27c3,179 55,125 116,176z"/>
   <path class="fil2" d="M9522 -16377c145,-16 46,6 91,-40 42,-43 -29,-7 55,-95l550 -45c-52,58 -91,76 -148,126 -385,336 -561,360 -531,573l47 126c148,-22 55,-10 128,-132l671 -60c5,7 10,11 12,23 3,15 19,36 24,43 185,230 120,-239 110,-339 -77,-10 -51,-38 -112,13 -5,4 -10,12 -14,17l-52 92 -566 48 574 -464c99,-75 133,-82 124,-239l-863 28c-19,-24 -19,-52 -75,-67 -38,-10 -36,-1 -70,2 -19,120 -5,310 45,390z"/>
   <path class="fil2" d="M11025 -21649l458 262c-35,20 3,9 -67,32 -21,7 -84,14 -107,15l-710 37 -120 244c148,67 113,48 194,-32l612 345c-20,106 -32,64 -15,160 173,13 91,49 186,-119 55,-97 65,-91 85,-209 -156,-43 -96,-31 -188,51 -117,-66 -400,-217 -496,-315 161,-13 320,-19 485,-27 244,-13 334,21 460,-73 -16,-147 72,-52 -206,-205 -673,-368 -456,-268 -507,-411 -22,-61 -52,-49 -97,-67 -239,370 -199,330 -120,364 135,60 -10,34 131,-39 5,-3 14,-10 22,-13z"/>
   <path class="fil2" d="M22869 -9273c-125,-46 -346,-193 -475,-273 -207,-127 -261,-239 -513,-47 42,141 45,98 160,80l308 622c-64,146 -110,6 -50,170 24,9 -36,80 201,-45 97,-52 123,-36 150,-123 -143,-194 -77,138 -243,-221 -58,-125 -123,-253 -177,-375 416,156 653,542 905,403l-362 -763c-46,-12 103,-19 45,-194 -66,10 -355,123 -352,186 3,100 94,65 100,67 119,43 13,-115 170,217 48,102 98,184 133,296z"/>
   <path class="fil2" d="M25642 -21967c-99,38 -511,289 -564,358l-53 -28c-15,-7 -42,-26 -68,-31 -52,-9 -68,9 -111,30 22,74 47,113 89,181l196 125c58,-167 -148,-107 247,-306 63,115 149,201 203,342 -95,96 -131,95 -230,156 -107,-55 -34,-73 -129,-57 -101,17 -138,16 44,274 76,107 13,85 154,73 26,-53 -1,-84 8,-128 17,-84 -29,8 26,-54 9,-11 158,-100 178,-111 124,-71 238,-163 358,-224l46 24c84,38 71,52 169,-16 -29,-60 -67,-130 -97,-182 -6,-9 -49,-77 -50,-78 -53,-58 -19,-41 -102,-58 -87,92 -46,57 -22,189 -123,47 -94,75 -241,108l-182 -330c62,-77 126,-101 204,-147 105,106 -13,46 115,77l75 -49c-33,-101 -121,-295 -234,-320 -103,96 -68,26 -29,182z"/>
   <path class="fil2" d="M19482 -25645c-16,95 -88,631 -158,674 -75,46 -103,-91 -108,125l283 64c131,-6 39,9 94,-32 -2,-80 -19,-55 -53,-107 -53,-79 -46,-63 -13,-214 15,-70 25,-124 37,-190l64 -198 274 690c54,142 25,131 172,163 17,-22 22,-17 41,-68l150 -747c54,-26 93,2 145,-96 -50,-95 81,-28 -126,-84 -5,-1 -185,-29 -185,-29 -214,21 1,151 29,177l-106 537c-294,-337 -161,-891 -629,-835 -10,47 -38,63 22,125 4,6 14,11 19,16l48 29z"/>
   <path class="fil2" d="M23138 -24366c-78,71 -362,470 -416,570 -477,-86 42,242 109,242 14,-14 88,31 7,-150 -2,-5 -9,-15 -11,-23 49,-58 119,-157 151,-227l380 248 -175 251c-118,-15 -64,-86 -159,48 63,82 182,161 279,215 102,-144 -17,-138 7,-213l417 -531c120,-39 -16,41 105,-7l60 -58c-103,-72 -147,-154 -304,-212 -60,157 -38,38 24,189 -64,79 -97,156 -180,205 -114,-71 -257,-170 -340,-259 305,-467 138,-2 324,-269 -74,-63 -190,-172 -298,-206 -69,138 -34,73 20,187z"/>
   <path class="fil2" d="M13073 -9776c-128,-14 -78,-36 -159,-12 -21,145 -38,92 103,186 101,67 88,85 196,63 2,-11 1,-47 1,-48l-50 -143c70,-54 117,-137 156,-218 110,46 295,158 373,259 -262,475 -146,88 -325,288 34,68 31,58 125,124 53,37 125,106 165,67 110,-105 -10,-90 -11,-154l325 -481c184,-280 113,68 243,-163 -89,-105 -201,-211 -325,-179l39 179c-69,80 -66,113 -154,189 -128,-77 -248,-152 -344,-253l135 -208c48,-1 276,64 142,-103 -40,-50 -202,-146 -254,-164 -140,247 162,28 -123,383 -76,93 -222,288 -258,388z"/>
   <path class="fil2" d="M23951 -9838c103,156 235,100 120,-70 -71,-103 -156,-222 -227,-315 -95,55 -168,102 -261,173 -258,199 -265,102 -194,243l38 3c77,-19 205,-140 385,-233 44,517 -484,609 -694,310 -111,-158 -73,-381 34,-497 179,-192 266,-1 472,-168l-112 -200c-231,77 31,48 -253,154 -285,106 -452,457 -258,764 247,393 787,311 950,-164z"/>
   <path class="fil2" d="M9614 -17270c0,-299 78,-520 388,-512 333,8 364,241 346,560l-734 -48zm-124 266c168,-11 -3,-129 352,-99 59,5 450,1 459,54 2,11 9,17 12,21 3,6 17,35 23,41 32,33 -72,42 113,40 101,-272 148,-978 -448,-989 -482,-9 -530,411 -541,766l30 166z"/>
   <path class="fil2" d="M26301 -15851c105,19 214,45 298,-9 -21,-116 29,-38 -90,-98 -7,-3 -17,-6 -24,-9l-20 -309 305 21 -12 262c16,81 -6,18 32,67 132,-13 82,45 108,-122 9,-62 7,-122 19,-190l283 25 -147 329c-8,3 -19,9 -26,11 -6,3 -17,7 -25,13 35,91 -116,87 299,96 16,-177 76,-564 42,-714 -165,-13 -82,-1 -125,48l-698 2c-118,-125 62,-108 -146,-132 -63,110 -89,556 -73,709z"/>
   <path class="fil0" d="M14361 -9695c-515,138 -309,872 168,726 409,-125 316,-857 -168,-726z"/>
   <path class="fil2" d="M26961 -14901c-335,31 -309,-133 -257,-403l382 80c-26,176 -34,221 -125,323zm-732 -402c125,22 80,1 177,-87l246 65c-77,66 -215,108 -327,151 -67,25 -197,53 -202,181 -5,140 -6,42 27,94 278,4 -130,-50 384,-189 55,117 44,227 152,291 460,274 553,-408 604,-639 -165,-62 -100,-32 -181,72l-671 -162c-51,-103 15,-100 -96,-156 -57,33 -48,-19 -94,178 -23,99 -35,102 -19,201z"/>
   <path class="fil2" d="M10414 -20379l375 21 -71 193c-21,36 -29,37 -51,60l-253 -274zm-184 -144l-112 267c45,33 46,47 116,27l84 -42c84,120 188,206 293,316 144,150 175,133 213,264l37 116c85,-18 53,1 98,-61 11,-14 122,-209 84,-273 -95,-161 -105,147 -219,-34 -49,-78 -30,-62 0,-143 34,-91 81,-190 137,-256l128 3c2,8 3,12 3,19 6,101 39,100 61,114 84,-19 25,22 83,-48 25,-30 103,-203 98,-295 -158,-49 -32,-20 -94,5 -83,34 58,26 -118,57l-892 -36z"/>
   <path class="fil2" d="M14361 -9695c484,-131 577,601 168,726 -477,146 -683,-588 -168,-726zm-446 454c104,655 1146,515 1027,-180 -109,-640 -1140,-527 -1027,180z"/>
   <path class="fil2" d="M10085 -14065c-73,-186 8,-259 205,-226l79 153c-92,58 -185,114 -284,73zm405 -105c-63,-200 -55,-349 183,-343 90,74 109,103 135,250l-318 93zm-171 -252c-190,-61 -365,0 -390,193 -13,104 20,186 52,277 38,110 31,159 117,201 89,-40 22,19 60,-66l22 -91 648 -212c136,81 0,85 128,70 127,-15 -55,-388 -86,-441 -135,-234 -487,-240 -551,69z"/>
   <path class="fil2" d="M9586 -18182c53,10 14,31 78,-6 123,-73 -41,31 82,-90l672 117c72,186 -94,105 149,146l119 -720c-231,-24 -203,-62 -295,-3 11,155 -24,37 130,128l-44 294 -306 -45c17,-215 123,-319 -73,-336l-72 303 -270 -38 27 -311c148,-10 129,40 175,-59 5,-88 -83,-78 -286,-99 -17,118 -36,229 -57,349 -40,230 -73,265 -29,370z"/>
   <path class="fil2" d="M16141 -25389l160 639 -72 59c-39,64 -21,84 -13,127l697 -159c-8,-109 -15,-232 -100,-285 -122,64 -49,4 -66,183l-285 65 -90 -299c235,-68 342,-41 302,-155 -58,-72 44,-18 -59,-40 -76,-17 -196,35 -279,50l-68 -274 315 -34c4,6 19,33 26,40 62,64 -1,52 108,45 34,-81 -12,-176 -34,-283 -68,3 -652,121 -687,180 -64,105 109,114 145,141z"/>
   <path class="fil2" d="M9746 -15395c-59,-92 2,-76 -75,-98 -108,-30 -87,27 -85,104 0,4 33,152 36,163 42,145 0,94 96,125 58,-31 40,-22 83,-133 2,-6 5,-18 9,-25 198,-52 458,-145 674,-118 261,418 -252,408 -578,503 -171,-84 74,-90 -160,-91 -73,99 9,192 35,383 153,-14 134,-15 128,-151 487,-92 870,-141 781,-537 -103,-463 -609,-181 -944,-125z"/>
   <path class="fil2" d="M18932 -8421c-40,-320 -67,-308 279,-302 27,53 19,69 29,89 42,77 -18,32 67,67 71,-73 36,93 51,-127 2,-23 -10,-145 -12,-179 -131,4 -260,15 -390,23l-253 22c-58,15 -49,17 -76,35 33,205 -33,28 128,128 14,152 22,294 35,447 38,450 -57,116 -100,352 58,45 -12,18 76,38l641 -37c0,-372 -10,-264 -68,-302 -73,39 -24,-14 -78,128l-305 62 -12 -305c429,-20 270,9 310,-96 -65,-103 42,-48 -322,-43z"/>
   <path class="fil2" d="M21767 -9337c83,-67 66,-136 55,-181 -91,1 -126,20 -212,52 -174,66 -118,17 -129,145 9,4 36,7 44,9l69 19c96,53 279,600 230,686 -4,6 -215,222 -354,-47 -46,-88 -209,-463 -178,-514l37 -63c61,-155 -132,-74 -202,-45 -121,49 -103,15 -144,99 105,176 99,-68 195,175 136,347 169,664 488,616 542,-82 238,-605 101,-951z"/>
   <path class="fil2" d="M23993 -23804c14,105 19,19 47,146l-449 501c-141,-51 -103,-121 -185,48l538 452c83,-61 144,-132 187,-235 -174,-89 -80,-8 -209,50 -49,-57 -160,-153 -223,-213 60,-78 103,-152 176,-219l264 197 95 -100 -242 -180c52,-166 64,-131 176,-234 94,60 165,138 245,216 -91,114 -106,87 -23,188 84,-39 167,-128 203,-220l-524 -469 -76 72z"/>
   <path class="fil2" d="M26396 -18284c-31,-63 -77,-146 -31,-238 82,-162 157,36 88,-233l-280 39c21,163 48,101 51,189 0,1 -83,460 336,422 160,-15 233,-103 261,-253 42,-226 -29,-332 225,-313 41,42 101,82 75,172 -49,173 -102,-21 -84,258l225 -32c36,-218 4,-663 -391,-543 -369,112 29,661 -475,532z"/>
   <path class="fil2" d="M12040 -22150c140,187 32,313 -93,338 -133,26 -63,-34 -196,20 -29,119 -38,92 49,164 84,70 88,74 194,90 48,-148 -29,-81 46,-155 1,0 362,-225 139,-501 -275,-338 -458,135 -728,85 -18,-11 -135,-141 17,-248 182,-109 120,71 260,-160 -31,-22 -49,-38 -88,-65 -89,-62 -26,-27 -103,-60 -33,37 0,-6 -42,58 -78,121 -407,296 -150,552 274,273 403,-165 695,-118z"/>
   <path class="fil2" d="M17976 -25120c-339,41 -205,243 -523,190 -362,-62 -440,-664 -52,-765 302,-79 212,129 492,76l-33 -246c-235,8 26,54 -278,22 -412,-43 -663,316 -572,672 123,482 824,536 966,51z"/>
   <path class="fil2" d="M10684 -19426c24,92 38,214 -35,280 -134,121 -172,-56 -187,184l286 78c4,-33 2,-122 2,-125 15,-131 150,-169 89,-376 -50,-171 -287,-323 -473,-172 -102,82 -155,397 -340,315 -79,-35 -122,-146 -57,-231 101,-133 147,49 180,-193l-210 -69 -36 72c-58,131 -112,197 -104,317 9,142 126,250 268,259 398,28 218,-524 617,-339z"/>
   <path class="fil2" d="M24253 -22722c-82,62 -166,108 -206,208 62,55 45,61 137,44 62,260 342,416 546,200 229,-244 -113,-401 -39,-675 129,-29 224,-39 256,97 37,163 -74,77 84,232l172 -145c-462,-694 -730,-198 -672,13 30,113 274,460 -39,426 -257,-27 -97,-245 -239,-400z"/>
   <path class="fil0" d="M9614 -17270l734 48c18,-319 -13,-552 -346,-560 -310,-8 -388,213 -388,512z"/>
   <path class="fil2" d="M21083 -24545c-98,-165 46,-149 -145,-224 -70,67 -93,174 -115,293 250,46 32,-71 223,65 73,53 149,81 259,58 179,-37 329,-255 202,-454 -83,-131 -368,-176 -288,-366 36,-83 137,-120 223,-51 120,97 -37,116 170,207 73,-56 85,-129 106,-249 -339,-66 -209,-142 -422,-117 -159,19 -303,193 -212,390 40,89 550,358 208,502 -50,21 -55,23 -112,8 -90,-24 -52,-17 -97,-62z"/>
   <path class="fil2" d="M22507 -24014c-199,-168 -290,60 -505,-137 -309,-283 -10,-811 390,-646 201,82 147,252 337,322l127 -209c-199,-121 -30,75 -228,-122 -66,-66 -168,-127 -283,-146 -289,-49 -484,108 -560,282 -234,536 437,972 722,656z"/>
   <path class="fil2" d="M26150 -19435c-144,-90 13,-129 -164,-84 -24,47 -32,-47 -24,101l92 280c43,-9 70,-7 95,-36 35,-43 11,-65 33,-121l263 -69 78 308 121 -18 -64 -338 273 -63 78 289c-40,37 -216,108 -101,169 56,30 196,-30 271,-48 -18,-120 -53,-233 -85,-349 -41,-153 -51,-287 -130,-348 -269,81 147,97 -302,212 -142,37 -290,80 -434,115z"/>
   <path class="fil2" d="M11722 -22831c114,153 177,216 278,143 -50,-163 -166,-17 -23,-245 132,34 200,120 288,205 110,105 139,168 266,244 -26,158 -50,64 -44,173 139,66 125,35 225,-79 90,-102 132,-106 82,-226 -92,-20 -84,-4 -151,54l-517 -493 103 -115c9,7 55,49 71,56l62 12c4,0 14,-1 21,-3 1,0 104,-12 -35,-150 -32,-33 -98,-72 -140,-96 -48,27 -21,6 -62,41 -31,26 -38,37 -65,66 -122,129 -293,257 -359,413z"/>
   <path class="fil2" d="M19837 -8822c243,-20 90,-32 176,97 41,60 -10,54 118,24l-47 -296c-134,16 -571,77 -703,141l44 264c190,26 66,-50 138,-177l110 -15 125 694 -64 48c-5,5 -13,11 -16,16 -4,6 -9,14 -12,19 -25,52 -11,29 -2,98 88,4 151,-8 244,-25 22,-4 86,-15 103,-25 152,-85 -77,-146 -79,-153 -4,-10 -16,-5 -23,-10l-112 -700z"/>
   <path class="fil2" d="M20734 -9014c153,82 -25,134 176,148 26,-41 22,-11 21,-82 -1,-29 -8,-51 -14,-77 -15,-62 -28,-97 -43,-163l-692 176 87 306c130,-31 89,-24 96,-145 10,-177 -30,15 14,-67 157,-8 120,-43 168,164 205,881 49,326 36,632 66,50 -80,49 122,30 4,0 97,-25 107,-28 274,-75 168,-131 -5,-193l-168 -672 95 -29z"/>
   <path class="fil2" d="M15096 -25242c80,324 82,254 150,273l20 -91c1,-7 -1,-17 -1,-24l153 -126 226 684c-81,103 -81,86 -59,172 108,7 298,-61 350,-135 -29,-55 -157,-106 -164,-115l-191 -547c-44,-233 -28,-43 18,-128 199,-76 111,2 124,14 41,34 3,16 44,57 66,67 -37,9 56,41 74,-96 50,16 -30,-299l-696 224z"/>
   <path class="fil2" d="M13863 -24633c69,248 218,360 211,190 -4,-103 -45,5 -23,-127l119 -60 324 623c0,0 -170,210 35,179 5,-1 150,-74 155,-77 110,-64 77,-21 108,-112 -98,-116 -23,-44 -170,-43 -122,-282 -379,-579 -283,-668 116,-108 91,53 198,94l-62 -303 -612 304z"/>
   <path class="fil2" d="M26491 -20477l-660 251c-7,-9 -17,-28 -20,-22 -2,6 -14,-14 -18,-17 -37,-32 -15,-55 -109,-29 -43,146 147,422 199,683 364,-83 254,-86 274,-150 -92,-59 -68,-6 -176,-23l-121 -299 674 -256c90,59 37,99 182,55l-89 -274c-43,-75 -16,-35 -61,-72 -109,52 -69,41 -75,153z"/>
   <path class="fil2" d="M26204 -21019l-629 317c-98,-85 -29,-116 -184,-42 36,116 98,264 184,345 275,-126 -160,-52 275,-270 131,-66 282,-125 387,-211 120,39 40,21 139,89l80 -64c-178,-378 -106,-316 -255,-315 -36,95 -14,44 3,151z"/>
   <path class="fil2" d="M26074 -14249c-173,-59 120,-30 -168,-102 -21,120 -114,276 -76,370 122,14 54,10 127,-56 112,-102 342,-155 487,-169 116,218 208,247 224,414 13,134 -73,51 64,126 82,-55 134,-253 152,-372l-108 -3c-4,0 -14,4 -17,5 -4,1 -13,4 -16,5l-29 8c-79,-90 -170,-237 -222,-347l-418 121z"/>
   <path class="fil2" d="M25962 -14428c200,46 36,21 188,-60 78,27 643,203 648,245 2,12 7,19 9,24 26,62 17,75 77,110 57,-42 116,-162 125,-257 15,-170 12,-39 -18,-103 -147,-26 -20,-28 -137,68 -131,-45 -263,-89 -398,-135 -555,-191 -107,-123 -338,-237 -100,44 -139,220 -156,345z"/>
   <path class="fil2" d="M20659 -25389l-186 645c-105,29 -117,-39 -136,122l344 108c19,-114 28,-94 -33,-168 -4,-4 -13,-14 -16,-17 -3,-4 -12,-12 -16,-19l183 -641c128,-51 115,63 140,-126l-341 -108c-23,110 -37,88 12,150l49 54z"/>
   <path class="fil0" d="M26961 -14901c91,-102 99,-147 125,-323l-382 -80c-52,270 -78,434 257,403z"/>
   <path class="fil0" d="M18055 -8308c169,-4 206,-11 336,-55 93,-286 -11,-357 -327,-342l-9 397z"/>
   <path class="fil0" d="M10490 -14170l318 -93c-26,-147 -45,-176 -135,-250 -238,-6 -246,143 -183,343z"/>
   <path class="fil0" d="M10085 -14065c99,41 192,-15 284,-73l-79 -153c-197,-33 -278,40 -205,226z"/>
   <path class="fil0" d="M13105 -23407c-76,-83 -205,-123 -320,-176l112 342c132,-47 118,-60 208,-166z"/>
   <path class="fil0" d="M10667 -20105c22,-23 30,-24 51,-60l71 -193 -375 -21 253 274z"/>
   <path class="fil2" d="M14770 -9878c51,23 104,40 138,6 81,-173 8,-83 -14,-116 -101,-31 -87,4 -124,110z"/>
   <path class="fil2" d="M14549 -10008l86 68c147,-160 50,-141 48,-148 -132,-45 -86,-36 -134,80z"/>
  </g>
  <g id="_1680180294880">
   <path class="fil0" d="M11424 22941c363,-6 256,-60 321,43 -40,105 120,75 -310,96l13 304 305 -62c54,-141 5,-88 77,-127 58,38 69,-70 69,301l-642 38c-88,-21 -18,7 -75,-38 43,-236 137,98 99,-353 -13,-152 -20,-295 -34,-447 -162,-99 -96,78 -129,-128 28,-18 19,-19 76,-34l253 -23c131,-8 260,-19 391,-22 1,34 13,156 12,178 -15,221 19,55 -52,127 -84,-34 -25,11 -66,-67 -11,-20 -2,-36 -30,-88 -345,-7 -318,-18 -278,302zm1016 299c8,4 20,0 23,10 3,7 231,68 79,153 -17,9 -80,21 -103,25 -93,16 -156,29 -244,25 -9,-69 -22,-46 3,-99 2,-5 8,-13 11,-18 4,-5 12,-12 16,-17l64 -47 -124 -694 -111 14c-72,128 52,203 -137,178l-45 -265c133,-63 569,-125 704,-140l47 296c-128,30 -78,35 -118,-25 -87,-129 67,-117 -176,-97l111 701zm-3207 -800l49 -17c180,-25 -161,0 55,-7 31,-1 105,10 141,14 153,166 283,606 434,769l72 -535c-124,-151 -100,84 -107,-160 92,-45 273,5 482,7 269,4 755,-62 709,376 -19,181 -108,195 -185,236l-81 53c169,300 165,200 274,256l-2 104 -191 10c-48,-71 -98,-132 -161,-220 -73,-103 -57,-137 -175,-225 -14,457 79,209 114,395 -76,55 -229,55 -302,41 -115,-22 -42,1 -95,-41 21,-188 -29,-31 125,-128l8 -720 -249 -5 -77 660c-2,23 -8,95 -13,113 -43,145 -4,33 -50,91 -139,-18 -122,-31 -180,-153l-209 -429c-52,-107 -51,-137 -138,-206l-61 553c124,88 106,46 106,160 -84,36 -292,9 -386,-32 6,-188 91,-85 130,-160l67 -640c-111,-162 -82,93 -104,-160zm3898 -64l168 673c173,62 278,118 4,193 -10,3 -103,27 -106,28 -202,19 -57,20 -123,-30 13,-307 169,248 -36,-632 -48,-207 -11,-172 -167,-165 -45,83 -4,-109 -15,68 -7,120 35,113 -96,145l-86 -306 692 -176c14,65 28,100 42,163 6,26 14,47 14,76 2,72 6,42 -20,82 -202,-13 -23,-65 -177,-148l-94 29zm-6725 -255c-113,-707 919,-821 1028,-181 118,695 -923,836 -1028,181zm7853 -96c137,346 440,869 -102,950 -319,49 -351,-269 -488,-615 -96,-243 -89,0 -194,-175 40,-85 22,-51 143,-100 71,-28 263,-109 203,46l-38 63c-30,51 133,426 179,514 138,268 349,53 353,46 49,-85 -134,-633 -229,-685l-70 -20c-8,-2 -34,-4 -44,-9 11,-127 -45,-79 129,-144 87,-32 121,-51 212,-53 11,46 28,114 -54,182zm-6636 -178c94,0 285,59 351,146 -140,233 -64,-172 -241,316l389 157 81 -245c-75,-107 -110,-26 -45,-188 335,109 651,244 1031,312 -3,65 -3,114 -24,179 -48,154 -16,77 -85,110 -114,-64 -53,-28 -48,-178l-307 -80 -73 281c410,75 299,64 296,167 -112,80 -77,10 -339,-27l-75 282 290 80c7,-8 14,-29 17,-23 12,25 29,-109 107,-106 119,6 9,246 -6,294l-577 -138c-87,-24 -162,-14 -104,-119 77,-137 94,135 212,-307 36,-137 87,-274 95,-416l-218 -103c-41,109 -260,611 -244,683 13,59 94,17 41,179 -73,-18 -112,-34 -181,-59l-164 -92c122,-270 44,197 256,-349l-375 -158c-31,78 -103,193 -92,271l44 176c-85,-7 -128,-22 -203,-50 -143,-54 -125,-58 -145,-114l153 -76 245 -641c-111,-104 -101,12 -62,-164zm-237 -473c21,33 95,-57 14,116 -35,34 -87,17 -139,-7 37,-106 24,-140 125,-109zm7974 714c-35,-112 -84,-194 -133,-296 -156,-331 -51,-174 -169,-216 -6,-2 -97,33 -101,-67 -2,-63 287,-177 352,-187 59,176 -91,182 -45,195l363 762c-252,140 -489,-246 -906,-402 55,122 120,249 177,374 166,360 100,28 244,221 -28,88 -54,72 -151,123 -237,126 -177,55 -201,46 -59,-165 -14,-25 50,-170l-307 -623c-116,19 -119,62 -160,-79 252,-192 306,-80 512,47 130,79 350,227 475,272zm-8185 -814c2,7 99,-12 -49,147l-86 -68c49,-116 3,-124 135,-79zm9268 249c-164,475 -704,557 -951,165 -194,-308 -27,-658 258,-765 285,-106 22,-76 253,-154l112 200c-206,168 -293,-23 -471,169 -108,115 -146,339 -35,497 210,299 738,206 695,-311 -180,93 -309,215 -386,233l-38 -3c-71,-140 -64,-43 195,-242 92,-72 165,-118 261,-173 71,92 155,211 226,315 116,169 -17,225 -119,69zm-11037 50c81,-23 30,-2 158,12 37,-100 183,-294 258,-388 285,-354 -17,-135 124,-382 51,17 214,114 253,163 134,167 -94,103 -142,103l-134 208c96,102 216,177 343,254 88,-76 86,-109 154,-190l-38 -178c124,-33 236,73 325,178 -130,231 -60,-117 -244,164l-324 480c1,65 120,50 11,155 -40,38 -112,-30 -166,-68 -94,-66 -91,-55 -125,-123 179,-200 64,187 326,-288 -78,-102 -263,-213 -374,-260 -38,82 -85,164 -156,218l50 144c0,0 1,37 0,47 -109,23 -96,5 -197,-62 -141,-94 -124,-41 -102,-187zm-2596 -4634c64,-309 417,-302 552,-68 30,53 212,426 86,440 -128,15 8,12 -128,-69l-649 211 -22 91c-38,86 30,27 -60,67 -86,-43 -79,-91 -117,-202 -31,-90 -64,-173 -51,-276 24,-193 200,-255 389,-194zm16173 53c52,110 144,257 223,346l29 -8c3,0 12,-4 15,-5 4,0 13,-4 17,-5l108 4c-18,118 -70,317 -152,372 -137,-76 -50,8 -63,-126 -17,-168 -109,-196 -224,-415 -145,15 -376,68 -488,169 -73,66 -5,71 -126,56 -38,-93 55,-250 76,-370 287,73 -6,44 168,103l417 -121zm362 -31c117,-96 -9,-95 138,-69 30,64 33,-66 17,103 -9,95 -68,215 -125,257 -59,-35 -50,-48 -77,-109 -2,-6 -7,-12 -8,-25 -6,-42 -571,-218 -648,-245 -153,82 12,106 -188,61 16,-125 55,-301 156,-345 231,114 -217,46 337,236 136,47 268,90 398,136zm437 -1035c-51,231 -145,912 -604,639 -109,-65 -98,-174 -153,-291 -513,139 -106,192 -383,188 -33,-52 -33,47 -28,-94 5,-127 136,-156 202,-181 113,-43 250,-84 328,-151l-247 -64c-97,87 -52,108 -176,87 -17,-100 -4,-103 19,-201 45,-197 36,-146 93,-179 112,57 45,54 96,156l672 163c80,-105 15,-135 181,-72zm-17545 41c336,-56 842,-338 945,124 88,396 -294,445 -782,538 7,136 25,136 -128,150 -26,-191 -107,-283 -35,-382 235,1 -11,7 160,91 327,-96 839,-85 578,-503 -215,-27 -475,66 -674,117 -4,8 -7,19 -9,25 -42,111 -25,103 -82,134 -97,-32 -55,20 -96,-125 -3,-11 -37,-159 -37,-163 -2,-77 -22,-134 86,-104 76,21 16,5 74,98zm16555 -456c-15,-154 11,-599 73,-709 208,24 29,7 146,132l698 -2c44,-49 -39,-61 126,-48 33,149 -26,537 -42,714 -416,-10 -264,-6 -300,-97 8,-5 19,-9 26,-12 6,-3 18,-9 26,-12l146 -328 -283 -26c-11,69 -10,129 -19,190 -25,168 25,110 -108,122 -38,-49 -16,14 -32,-66l12 -262 -305 -21 21 308c6,3 17,6 23,10 119,59 69,-19 90,97 -84,55 -192,29 -298,10zm-8679 -8654c1652,-184 3351,180 4725,1000l574 385c430,289 490,404 776,663l1123 1276c714,1075 1135,2067 1281,3515 201,1984 -296,3719 -1380,5269l-891 1026c-570,490 -874,827 -1638,1242 -1924,1044 -4254,1268 -6333,534 -747,-264 -1855,-868 -2417,-1424 -181,-178 -334,-285 -496,-463 -153,-167 -292,-308 -463,-497l-410 -549c-139,-203 -248,-362 -372,-588 -494,-900 -783,-1737 -913,-2917 -223,-2026 295,-3713 1373,-5281 133,-194 273,-380 422,-535 703,-734 1209,-1240 2102,-1736 908,-505 1731,-785 2937,-920zm-7268 8430l52 -93c4,-4 9,-12 13,-16 62,-51 36,-24 112,-14 10,100 75,569 -109,339 -5,-6 -22,-28 -25,-43 -2,-11 -6,-15 -11,-23l-672 60c-72,123 21,111 -128,132l-47 -126c-30,-213 146,-236 532,-573 57,-49 95,-67 148,-125l-551 44c-83,88 -12,52 -55,96 -45,46 54,23 -91,40 -49,-80 -63,-270 -44,-390 33,-4 31,-13 69,-3 57,16 56,44 75,68l863 -28c10,157 -24,163 -124,238l-573 465 566 -48zm-893 -1095c11,-355 58,-776 540,-766 596,11 550,717 449,988 -186,2 -82,-6 -114,-39 -6,-7 -19,-36 -23,-41 -3,-4 -10,-10 -11,-22 -9,-52 -400,-48 -460,-53 -354,-30 -184,87 -352,98l-29 -165zm16891 -322c-2,-171 38,-134 484,-274 786,-247 121,-200 498,-243l23 47c36,118 -8,-81 13,54 1,4 4,88 4,96 1,67 -3,119 -11,185 -207,-2 -63,16 -158,-111l-571 187c110,59 261,75 396,108 342,83 293,25 350,143 -94,145 -473,132 -744,270l570 155 80 -91c66,-32 39,-12 102,-4 1,116 25,278 -22,367 -254,-12 29,-48 -202,-141 -60,-24 -215,-59 -279,-76 -93,-25 -177,-50 -275,-78 -40,-11 -114,-23 -152,-37 -151,-57 -42,16 -102,-77 -42,-213 418,-109 691,-299l-695 -181zm44 -793c505,130 106,-419 476,-532 394,-120 427,325 391,544l-226 31c-18,-279 35,-84 85,-258 25,-89 -35,-130 -76,-171 -254,-20 -183,87 -225,313 -28,150 -100,238 -261,252 -419,39 -336,-421 -336,-421 -3,-88 -30,-26 -51,-189l280 -39c70,268 -6,71 -87,232 -47,93 0,176 30,238zm-16810 103c-44,-105 -11,-141 29,-371 21,-119 40,-231 58,-348 202,21 290,11 286,98 -46,99 -28,49 -175,59l-28 312 271 38 71 -304c196,17 91,122 74,337l305 45 44 -295c-153,-90 -119,27 -129,-128 92,-58 63,-21 294,4l-118 719c-244,-40 -77,40 -150,-146l-672 -116c-122,121 41,17 -82,89 -64,38 -25,16 -78,7zm16565 -1254c143,-34 291,-78 433,-114 450,-116 33,-131 302,-212 80,60 89,194 131,347 31,116 67,230 84,350 -75,18 -215,78 -271,48 -115,-61 61,-133 101,-170l-78 -288 -272 62 63 338 -121 18 -77 -307 -263 69c-23,55 2,78 -33,120 -25,30 -53,28 -95,37l-92 -280c-8,-148 -1,-54 23,-101 177,-45 21,-7 165,83zm-15467 10c-398,-185 -219,366 -616,339 -143,-10 -260,-117 -269,-259 -8,-120 46,-186 105,-318l35 -72 211 70c-34,241 -80,60 -181,193 -65,85 -22,196 58,231 185,81 238,-234 340,-316 186,-150 423,2 473,173 60,207 -75,244 -89,375 0,3 2,92 -3,125l-285 -78c14,-240 52,-62 186,-184 73,-66 59,-187 35,-279zm439 -1062c176,-30 34,-22 117,-56 62,-25 -64,-55 94,-6 6,92 -72,266 -97,296 -59,70 1,28 -84,48 -22,-14 -54,-14 -60,-114 -1,-8 -1,-12 -4,-20l-128 -2c-55,66 -103,165 -136,255 -30,82 -50,65 -1,143 114,182 124,-127 220,34 38,65 -74,259 -84,274 -46,61 -13,43 -99,60l-36 -116c-38,-130 -69,-113 -214,-263 -105,-110 -208,-197 -292,-316l-85 42c-70,20 -71,6 -115,-27l111 -267 893 35zm14689 240c3,-6 12,13 20,21l660 -251c6,-111 -35,-100 74,-152 46,37 19,-4 61,72l89 273c-145,45 -92,4 -182,-55l-674 256 122 300c107,17 83,-37 175,22 -20,64 91,68 -273,151 -52,-261 -242,-537 -199,-684 93,-26 72,-2 109,29 3,4 15,24 18,18zm-420 -497c154,-73 85,-43 184,43l629 -318c-17,-106 -39,-55 -4,-150 149,-1 77,-63 256,314l-80 65c-100,-68 -20,-50 -139,-90 -105,87 -256,146 -388,212 -434,217 1,143 -275,270 -86,-82 -148,-229 -183,-346zm-14367 -904c-8,3 -17,10 -22,12 -140,74 4,99 -131,40 -78,-35 -118,6 121,-365 44,18 74,6 96,68 51,143 -166,42 507,411 279,152 190,58 206,204 -126,95 -216,60 -460,73 -165,9 -324,14 -485,28 97,98 379,249 496,315 93,-83 33,-95 188,-52 -20,118 -30,113 -84,209 -95,169 -13,132 -186,119 -17,-95 -5,-54 15,-160l-612 -344c-82,79 -46,98 -194,32l119 -245 711 -36c23,-2 85,-9 106,-16 70,-23 33,-11 67,-31l-458 -262zm14053 39c54,-68 465,-320 564,-358 -38,-155 -74,-86 29,-181 114,25 201,218 234,319l-74 49c-129,-31 -11,30 -116,-76 -78,45 -141,70 -204,146l183 330c146,-33 117,-60 241,-108 -24,-131 -66,-96 21,-188 83,16 49,0 102,57 2,2 45,69 50,78 31,52 69,122 98,183 -99,67 -86,54 -169,15l-46 -24c-120,62 -235,154 -359,224 -20,12 -169,101 -178,111 -54,62 -9,-29 -26,55 -9,44 18,74 -7,128 -141,11 -79,34 -155,-74 -181,-257 -145,-256 -44,-274 96,-16 22,3 129,57 99,-61 135,-59 230,-156 -53,-141 -140,-226 -202,-342 -395,200 -189,139 -247,307l-196 -126c-43,-67 -67,-106 -90,-180 44,-21 60,-39 111,-30 27,4 53,23 69,30l52 28zm-13037 -541c-293,-47 -421,392 -695,118 -257,-256 71,-431 150,-551 42,-65 8,-21 41,-58 77,33 15,-2 103,60 39,27 57,42 88,65 -140,230 -77,50 -260,159 -152,108 -34,238 -17,249 270,49 454,-424 728,-85 224,276 -138,500 -139,501 -75,74 2,7 -46,154 -106,-16 -110,-19 -194,-89 -87,-73 -77,-45 -49,-164 133,-55 63,5 196,-21 125,-24 233,-151 94,-338zm12212 -571c142,154 -18,373 239,400 314,33 70,-313 39,-426 -57,-211 210,-708 672,-13l-172 144c-158,-154 -46,-68 -84,-231 -31,-136 -127,-127 -256,-97 -73,274 269,430 39,674 -204,217 -483,60 -546,-200 -91,18 -75,12 -137,-43 41,-101 124,-147 206,-208zm-12531 -110c66,-156 237,-284 359,-413 28,-29 34,-40 65,-66 41,-35 14,-14 62,-41 42,24 109,64 141,96 138,139 35,151 35,151 -7,2 -18,3 -22,2l-61 -11c-17,-7 -63,-50 -71,-57l-103 115 516 493c68,-57 59,-73 151,-53 51,119 8,123 -81,225 -101,114 -87,145 -226,80 -5,-109 18,-16 44,-173 -127,-77 -155,-140 -265,-245 -89,-84 -157,-171 -289,-204 -143,228 -26,82 24,244 -101,74 -164,10 -279,-143zm11870 -325l449 -502c-28,-127 -33,-41 -47,-145l75 -73 524 470c-35,92 -119,180 -203,220 -82,-101 -68,-75 23,-188 -79,-79 -151,-156 -245,-217 -112,103 -123,68 -176,235l242 179 -94 100 -265 -197c-73,67 -116,141 -175,219 62,61 173,156 222,214 129,-58 35,-139 209,-50 -43,103 -103,173 -187,234l-538 -452c82,-168 44,-99 186,-47zm-10384 -991c24,-103 65,-105 152,-154 345,-195 165,53 148,95 115,219 285,409 385,614 125,-41 190,-114 283,-175 -44,-84 -118,-150 -14,-206 96,39 150,151 189,259 -153,96 -321,209 -481,307 -66,39 -85,38 -149,72 -143,76 -193,214 -304,232 -135,-106 45,120 -34,-37 -60,-119 64,-105 -121,-192l-299 228 43 145 98 3c151,38 47,105 31,121 -82,82 -149,154 -250,189l-61 -63c72,-135 94,-1 49,-205l-230 -636c-102,79 -90,54 -166,-23 43,-93 145,-159 243,-211 87,53 726,408 825,400 91,-8 178,-74 232,-105 -45,-127 -307,-506 -395,-645 -145,31 -68,75 -174,-13zm483 758c17,22 34,-70 -11,-14l11 14zm9031 -407c54,-100 338,-498 417,-570 -54,-114 -90,-49 -21,-187 108,35 225,144 299,207 -187,267 -20,-199 -325,268 83,90 227,188 340,260 83,-49 117,-126 181,-206 -62,-150 -85,-32 -25,-189 157,59 201,140 304,213l-60 58c-120,48 15,-33 -104,6l-418 531c-24,75 96,70 -7,213 -97,-53 -216,-132 -279,-214 95,-134 42,-64 159,-48l176 -251 -380 -248c-33,69 -102,169 -152,227 3,8 9,18 11,22 82,182 7,137 -7,151 -67,-1 -586,-329 -109,-243zm-8246 -1141l61 303c-107,-41 -82,-201 -198,-94 -95,89 161,387 283,669 147,-1 72,-73 171,42 -31,91 2,48 -109,113 -5,3 -150,76 -155,76 -204,32 -35,-178 -35,-178l-323 -624 -119 61c-23,132 19,23 23,127 6,169 -143,58 -212,-191l613 -304zm8031 923c-285,317 -955,-119 -722,-656 76,-174 271,-331 561,-282 114,20 216,80 282,146 198,198 29,2 228,122l-127 209c-190,-70 -136,-239 -336,-322 -400,-165 -700,364 -391,646 216,197 306,-31 505,137zm-1423 -530c45,45 7,38 97,62 56,15 61,13 112,-8 342,-145 -168,-414 -209,-503 -90,-197 53,-371 212,-389 213,-25 84,50 422,116 -21,121 -33,193 -106,250 -207,-91 -50,-111 -170,-207 -86,-69 -187,-33 -222,51 -80,189 205,235 288,365 126,200 -24,418 -203,455 -110,22 -185,-6 -259,-58 -191,-136 27,-19 -223,-65 23,-119 45,-226 115,-294 192,76 47,60 146,225zm-5291 -922c79,316 103,204 29,299 -92,-31 11,26 -55,-40 -42,-42 -3,-24 -45,-58 -13,-11 75,-89 -124,-13 -45,85 -62,-105 -18,128l192 547c6,8 134,60 164,115 -53,74 -243,141 -351,134 -22,-86 -22,-68 60,-172l-227 -683 -152 126c-1,6 1,17 1,23l-21 92c-67,-20 -70,51 -150,-273l697 -225zm4544 845c20,-162 31,-93 136,-122l187 -646 -50 -54c-48,-61 -34,-40 -12,-149l341 107c-25,190 -12,75 -139,127l-184 641c5,6 13,14 17,18 3,4 12,13 15,18 62,73 52,54 33,168l-344 -108zm-4196 -768c-36,-27 -209,-35 -145,-141 36,-58 620,-176 688,-179 21,106 67,202 33,283 -108,6 -45,19 -108,-46 -6,-6 -22,-34 -25,-39l-316 34 68 273c83,-15 203,-67 280,-50 102,23 0,-31 58,41 40,114 -66,86 -302,154l90 299 285 -64c17,-180 -56,-120 66,-184 85,53 92,176 100,286l-696 159c-8,-43 -26,-63 12,-127l72 -60 -160 -639zm3183 419c71,-44 143,-580 158,-675l-47 -29c-5,-4 -15,-10 -20,-15 -59,-63 -31,-78 -22,-125 468,-56 335,498 630,834l105 -537c-27,-25 -242,-156 -28,-177 0,0 180,29 184,30 207,55 76,-12 126,83 -51,99 -91,71 -144,96l-150 748c-20,51 -25,46 -41,68 -148,-32 -119,-21 -173,-164l-273 -689 -64 198c-13,66 -23,120 -38,189 -33,151 -39,136 13,215 34,51 51,27 53,107 -54,41 38,25 -93,32l-284 -64c5,-216 34,-80 108,-125zm-1348 -150c-142,486 -843,431 -965,-51 -91,-356 159,-715 571,-672 304,32 43,-13 278,-21l34 246c-281,53 -191,-156 -492,-77 -388,102 -310,704 51,765 319,54 184,-148 523,-190zm162 262c-25,-201 86,-107 116,-179l23 -672c-62,-51 -114,3 -117,-176l397 27c-3,139 -97,140 -97,139 -4,-7 -17,6 -28,10l-8 264 399 2 -57 -278c-5,-3 -14,-8 -19,-12 -53,-51 -34,-35 -32,-130l383 13c18,111 33,84 -67,148l-29 719c86,56 73,12 74,145l-312 -5c-58,-13 -58,-20 -84,-34 21,-97 18,-45 57,-89 80,-92 12,63 66,-75 16,-41 10,-207 9,-258l-395 -4 -10 266c6,6 16,13 21,16l73 57c38,47 24,-14 23,112l-386 -6zm9503 8551c167,-1974 -456,-4271 -1638,-5865 -160,-216 -317,-451 -506,-645l-274 -301c-204,-209 -366,-399 -593,-591 -113,-95 -175,-162 -297,-277l-318 -257c-209,-186 -1167,-777 -1408,-895 -1160,-571 -2183,-874 -3647,-968 -1953,-127 -3945,366 -5497,1397 -419,278 -962,654 -1298,1004 -424,441 -717,686 -1128,1206 -1993,2518 -2416,6002 -1275,9022 687,1819 2318,3691 4039,4658 636,357 1283,642 2027,853 1954,555 4181,411 5998,-292 1741,-673 3424,-2101 4417,-3671 873,-1379 1248,-2607 1398,-4378z"/>
   <path class="fil0" d="M4854 17964c93,-82 401,-237 533,-305 284,-147 1555,-869 1663,-866 139,181 233,383 405,557 424,432 431,515 1024,927 206,142 393,239 639,353 740,342 1681,442 2519,323 271,-39 572,-149 787,-176l426 1105 -936 242c-63,391 -61,1258 -250,1311 -422,118 -1221,-4 -1618,-25l-166 -1310c-146,-21 -300,-57 -444,-95 -141,-36 -319,-107 -452,-129 -128,111 -749,946 -788,1034 -250,-64 -931,-427 -1142,-599l-331 -269 507 -1224c-226,-220 -442,-376 -628,-637 -391,78 -866,400 -1263,499l-453 -647c-29,-54 -4,3 -32,-69zm5059 -9046c26,-247 62,-493 95,-741 69,-536 2,-579 221,-608 389,-52 1223,-89 1542,59 64,63 117,941 157,1160 53,288 392,135 951,386 -52,188 -296,1038 -377,1139 -1088,-407 -2313,-345 -3367,94 -531,221 -868,495 -1218,797 -466,402 -442,483 -695,807 -94,119 -117,173 -189,284 -153,-79 -2096,-1159 -2172,-1239 50,-102 170,-283 236,-370l258 -312c2,-10 11,-10 16,-15l1183 494 673 -660c-46,-270 -396,-954 -507,-1253 392,-294 872,-624 1465,-816 150,138 257,336 412,507 114,126 290,383 369,519l947 -232zm3143 -388c-36,-327 223,-417 534,-400 274,16 458,161 665,277 412,231 805,504 1134,754 637,484 1260,1226 1707,2066 1147,2155 1066,5433 -456,7359 -383,485 -430,546 -896,988 -427,406 -1153,864 -1687,1128 -233,115 -462,232 -764,84 -232,-112 -249,-437 -111,-671l503 -457c168,-163 570,-611 451,-896 -95,-228 -545,-69 -1584,-785 -1061,-731 -1073,-1131 -2070,-1670 -1062,-574 -1925,-496 -3049,-119 -546,183 -794,424 -1483,395 -1940,-81 -2795,-2619 -1222,-3772 652,-478 1446,-607 2209,-249 407,191 961,346 1465,422 950,145 1771,-134 2512,-671 418,-302 347,-267 737,-669 1121,-1157 2320,-1356 2373,-1400 217,-181 -31,-527 -131,-673 -288,-418 -401,-447 -703,-706 -86,-73 -116,-166 -134,-335zm-2734 -1328c-1482,104 -2569,559 -3667,1334 -503,355 -1267,1132 -1628,1600 -390,506 -741,1156 -977,1773 -695,1814 -588,4367 396,6052 684,1171 1135,1658 2138,2435 184,143 337,261 539,387 1285,802 2841,1135 4419,1021 2693,-195 4235,-1580 5484,-3186 245,-315 625,-1094 788,-1514 742,-1919 567,-4229 -384,-6052 -379,-727 -1026,-1513 -1645,-2033 -232,-194 -88,-128 -485,-410 -680,-483 -894,-649 -1768,-981 -984,-373 -2066,-506 -3210,-426z"/>
   <path class="fil1" d="M13850 11463c861,-106 1635,6 2246,573 484,448 800,1286 877,1970 102,911 -113,1680 -523,2309 -387,592 -794,979 -1804,1043 -1118,70 -1580,-147 -2196,-685 -203,-176 -459,-508 -613,-825 -585,-1206 -471,-2257 243,-3295 336,-488 905,-984 1770,-1090zm-6204 2047c973,-265 939,1168 787,1505 -250,554 -1285,584 -1289,-376 -2,-390 -94,-967 502,-1129zm-1850 -352c311,-63 776,67 793,362 6,105 -96,358 -124,485 -38,172 -60,384 -52,569 12,282 211,914 171,1050 -77,262 -570,351 -898,264 -1355,-357 -1404,-2422 110,-2730zm9948 6416c466,-442 513,-503 896,-988 1522,-1926 1603,-5204 456,-7359 -447,-840 -1070,-1582 -1707,-2066 -329,-250 -722,-523 -1134,-754 -207,-116 -391,-261 -665,-277 -311,-17 -570,73 -534,400 18,169 48,262 134,335 302,259 415,288 703,706 100,146 348,492 131,673 -53,44 -1252,243 -2373,1400 -390,402 -319,367 -737,669 -741,537 -1562,816 -2512,671 -504,-76 -1058,-231 -1465,-422 -763,-358 -1557,-229 -2209,249 -1573,1153 -718,3691 1222,3772 689,29 937,-212 1483,-395 1124,-377 1987,-455 3049,119 997,539 1009,939 2070,1670 1039,716 1489,557 1584,785 119,285 -283,733 -451,896l-503 457c-138,234 -121,559 111,671 302,148 531,31 764,-84 534,-264 1260,-722 1687,-1128z"/>
   <path class="fil0" d="M13850 11463c-865,106 -1434,602 -1770,1090 -714,1038 -828,2089 -243,3295 154,317 410,649 613,825 616,538 1078,755 2196,685 1010,-64 1417,-451 1804,-1043 410,-629 625,-1398 523,-2309 -77,-684 -393,-1522 -877,-1970 -611,-567 -1385,-679 -2246,-573z"/>
   <path class="fil1" d="M20132 15054c-150,1771 -525,2999 -1398,4378 -993,1570 -2676,2998 -4417,3671 -1817,703 -4044,847 -5998,292 -744,-211 -1391,-496 -2027,-853 -1721,-967 -3352,-2839 -4039,-4658 -1141,-3020 -718,-6504 1275,-9022 411,-520 704,-765 1128,-1206 336,-350 879,-726 1298,-1004 1552,-1031 3544,-1524 5497,-1397 1464,94 2487,397 3647,968 241,118 1199,709 1408,895l318 257c122,115 184,182 297,277 227,192 389,382 593,591l274 301c189,194 346,429 506,645 1182,1594 1805,3891 1638,5865zm-18822 -1066l0 1008c13,40 124,1281 296,1937 241,918 820,2305 1425,3051 184,227 297,426 489,629l530 591 1197 1041c410,294 872,591 1386,852 775,392 1643,680 2528,829l997 135c7,2 18,6 26,10l1464 0 243 -47c86,-7 166,-15 253,-26 489,-57 915,-144 1390,-270 2596,-694 4858,-2710 6039,-5090 248,-498 437,-1035 597,-1610 155,-558 302,-1864 326,-1917l0 -1318 -146 -1021c-199,-1216 -858,-2971 -1678,-3921 -177,-205 -328,-429 -495,-625 -407,-480 -1289,-1292 -1771,-1616 -1313,-883 -2349,-1352 -3985,-1610 -205,-32 -902,-74 -1007,-115l-1023 0c-303,117 -2161,-38 -4391,1332 -127,78 -239,138 -359,217l-952 744c-194,187 -390,329 -589,529 -1430,1432 -2387,3266 -2685,5277 -32,218 -62,871 -105,1004z"/>
   <path class="fil1" d="M10322 7202c1144,-80 2226,53 3210,426 874,332 1088,498 1768,981 397,282 253,216 485,410 619,520 1266,1306 1645,2033 951,1823 1126,4133 384,6052 -163,420 -543,1199 -788,1514 -1249,1606 -2791,2991 -5484,3186 -1578,114 -3134,-219 -4419,-1021 -202,-126 -355,-244 -539,-387 -1003,-777 -1454,-1264 -2138,-2435 -984,-1685 -1091,-4238 -396,-6052 236,-617 587,-1267 977,-1773 361,-468 1125,-1245 1628,-1600 1098,-775 2185,-1230 3667,-1334zm-209 -345c-1206,135 -2029,415 -2937,920 -893,496 -1399,1002 -2102,1736 -149,155 -289,341 -422,535 -1078,1568 -1596,3255 -1373,5281 130,1180 419,2017 913,2917 124,226 233,385 372,588l410 549c171,189 310,330 463,497 162,178 315,285 496,463 562,556 1670,1160 2417,1424 2079,734 4409,510 6333,-534 764,-415 1068,-752 1638,-1242l891 -1026c1084,-1550 1581,-3285 1380,-5269 -146,-1448 -567,-2440 -1281,-3515l-1123 -1276c-286,-259 -346,-374 -776,-663l-574 -385c-1374,-820 -3073,-1184 -4725,-1000z"/>
   <path class="fil1" d="M9913 8918l-947 232c-79,-136 -255,-393 -369,-519 -155,-171 -262,-369 -412,-507 -593,192 -1073,522 -1465,816 111,299 461,983 507,1253l-673 660 -1183 -494c-5,5 -14,5 -16,15l-258 312c-66,87 -186,268 -236,370 76,80 2019,1160 2172,1239 72,-111 95,-165 189,-284 253,-324 229,-405 695,-807 350,-302 687,-576 1218,-797 1054,-439 2279,-501 3367,-94 81,-101 325,-951 377,-1139 -559,-251 -898,-98 -951,-386 -40,-219 -93,-1097 -157,-1160 -319,-148 -1153,-111 -1542,-59 -219,29 -152,72 -221,608 -33,248 -69,494 -95,741z"/>
   <path class="fil1" d="M4854 17964c28,72 3,15 32,69l453 647c397,-99 872,-421 1263,-499 186,261 402,417 628,637l-507 1224 331 269c211,172 892,535 1142,599 39,-88 660,-923 788,-1034 133,22 311,93 452,129 144,38 298,74 444,95l166 1310c397,21 1196,143 1618,25 189,-53 187,-920 250,-1311l936 -242 -426 -1105c-215,27 -516,137 -787,176 -838,119 -1779,19 -2519,-323 -246,-114 -433,-211 -639,-353 -593,-412 -600,-495 -1024,-927 -172,-174 -266,-376 -405,-557 -108,-3 -1379,719 -1663,866 -132,68 -440,223 -533,305z"/>
   <path class="fil0" d="M5796 13158c-1514,308 -1465,2373 -110,2730 328,87 821,-2 898,-264 40,-136 -159,-768 -171,-1050 -8,-185 14,-397 52,-569 28,-127 130,-380 124,-485 -17,-295 -482,-425 -793,-362z"/>
   <path class="fil0" d="M7646 13510c-596,162 -504,739 -502,1129 4,960 1039,930 1289,376 152,-337 186,-1770 -787,-1505z"/>
   <path class="fil2" d="M10556 22656c315,-14 420,57 326,342 -130,44 -167,51 -335,55l9 -397zm-1219 -240c-216,7 125,-18 -55,7l-49 17c22,253 -7,-2 104,160l-67 640c-39,75 -124,-28 -130,160 94,41 302,68 386,32 0,-114 18,-72 -106,-160l61 -553c87,69 86,99 138,206l209 429c58,122 41,135 180,153 46,-58 7,54 50,-91 5,-18 11,-90 13,-113l77 -660 249 5 -8 720c-154,97 -104,-60 -125,128 53,42 -20,19 95,41 73,14 226,14 302,-41 -35,-186 -128,62 -114,-395 118,88 102,122 175,225 63,88 113,149 161,220l191 -10 2 -104c-109,-56 -105,44 -274,-256l81 -53c77,-41 166,-55 185,-236 46,-438 -440,-372 -709,-376 -209,-2 -390,-52 -482,-7 7,244 -17,9 107,160l-72 535c-151,-163 -281,-603 -434,-769 -36,-4 -110,-15 -141,-14z"/>
   <path class="fil2" d="M7974 21993c-66,-87 -257,-146 -351,-146 -39,176 -49,60 62,164l-245 641 -153 76c20,56 2,60 145,114 75,28 118,43 203,50l-44 -176c-11,-78 61,-193 92,-271l375 158c-212,546 -134,79 -256,349l164 92c69,25 108,41 181,59 53,-162 -28,-120 -41,-179 -16,-72 203,-574 244,-683l218 103c-8,142 -59,279 -95,416 -118,442 -135,170 -212,307 -58,105 17,95 104,119l577 138c15,-48 125,-288 6,-294 -78,-3 -95,131 -107,106 -3,-6 -10,15 -17,23l-290 -80 75 -282c262,37 227,107 339,27 3,-103 114,-92 -296,-167l73 -281 307 80c-5,150 -66,114 48,178 69,-33 37,44 85,-110 21,-65 21,-114 24,-179 -380,-68 -696,-203 -1031,-312 -65,162 -30,81 45,188l-81 245 -389 -157c177,-488 101,-83 241,-316z"/>
   <path class="fil2" d="M6171 7958c45,-56 28,36 11,14 0,0 -3,-4 -3,-4 -1,-1 -11,-7 -8,-10zm-894 -180c114,54 243,94 319,177 -89,106 -76,119 -208,166l-111 -343zm422 -564c106,88 29,44 174,13 88,139 350,518 395,645 -54,31 -141,97 -232,105 -99,8 -738,-347 -825,-400 -98,52 -200,118 -243,211 76,77 64,102 166,23l230 636c45,204 23,70 -49,205l61 63c101,-35 168,-107 250,-189 16,-16 120,-83 -31,-121l-98 -3 -43 -145 299 -228c185,87 61,73 121,192 79,157 -101,-69 34,37 111,-18 161,-156 304,-232 64,-34 83,-33 149,-72 160,-98 328,-211 481,-307 -39,-108 -93,-220 -189,-259 -104,56 -30,122 14,206 -93,61 -158,134 -283,175 -100,-205 -270,-395 -385,-614 17,-42 197,-290 -148,-95 -87,49 -128,51 -152,154z"/>
   <path class="fil2" d="M18843 13870l695 181c-273,190 -733,86 -691,299 60,93 -49,20 102,77 38,14 112,26 152,37 98,28 182,53 275,78 64,17 219,52 279,76 231,93 -52,129 202,141 47,-89 23,-251 22,-367 -63,-8 -36,-28 -102,4l-80 91 -570 -155c271,-138 650,-125 744,-270 -57,-118 -8,-60 -350,-143 -135,-33 -286,-49 -396,-108l571 -187c95,127 -49,109 158,111 8,-66 12,-118 11,-185 0,-8 -3,-92 -4,-96 -21,-135 23,64 -13,-54l-23 -47c-377,43 288,-4 -498,243 -446,140 -486,103 -484,274z"/>
   <path class="fil2" d="M10768 5652l-23 672c-30,72 -141,-22 -116,179l386 6c1,-126 15,-65 -23,-112l-73 -57c-5,-3 -15,-10 -21,-16l10 -266 395 4c1,51 7,217 -9,258 -54,138 14,-17 -66,75 -39,44 -36,-8 -57,89 26,14 26,21 84,34l312 5c-1,-133 12,-89 -74,-145l29 -719c100,-64 85,-37 67,-148l-383 -13c-2,95 -21,79 32,130 5,4 14,9 19,12l57 278 -399 -2 8 -264c11,-4 24,-17 28,-10 0,1 94,0 97,-139l-397 -27c3,179 55,125 117,176z"/>
   <path class="fil2" d="M2013 14985c145,-17 46,6 91,-40 43,-44 -28,-8 55,-96l551 -44c-53,58 -91,76 -148,125 -386,337 -562,360 -532,573l47 126c149,-21 56,-9 128,-132l672 -60c5,8 9,12 11,23 3,15 20,37 25,43 184,230 119,-239 109,-339 -76,-10 -50,-37 -112,14 -4,4 -9,12 -13,16l-52 93 -566 48 573 -465c100,-75 134,-81 124,-238l-863 28c-19,-24 -18,-52 -75,-68 -38,-10 -36,-1 -69,3 -19,120 -5,310 44,390z"/>
   <path class="fil2" d="M3516 9713l458 262c-34,20 3,8 -67,31 -21,7 -83,14 -106,16l-711 36 -119 245c148,66 112,47 194,-32l612 344c-20,106 -32,65 -15,160 173,13 91,50 186,-119 54,-96 64,-91 84,-209 -155,-43 -95,-31 -188,52 -117,-66 -399,-217 -496,-315 161,-14 320,-19 485,-28 244,-13 334,22 460,-73 -16,-146 73,-52 -206,-204 -673,-369 -456,-268 -507,-411 -22,-62 -52,-50 -96,-68 -239,371 -199,330 -121,365 135,59 -9,34 131,-40 5,-2 14,-9 22,-12z"/>
   <path class="fil2" d="M15360 22088c-125,-45 -345,-193 -475,-272 -206,-127 -260,-239 -512,-47 41,141 44,98 160,79l307 623c-64,145 -109,5 -50,170 24,9 -36,80 201,-46 97,-51 123,-35 151,-123 -144,-193 -78,139 -244,-221 -57,-125 -122,-252 -177,-374 417,156 654,542 906,402l-363 -762c-46,-13 104,-19 45,-195 -65,10 -354,124 -352,187 4,100 95,65 101,67 118,42 13,-115 169,216 49,102 98,184 133,296z"/>
   <path class="fil2" d="M18133 9394c-99,38 -510,290 -564,358l-52 -28c-16,-7 -42,-26 -69,-30 -51,-9 -67,9 -111,30 23,74 47,113 90,180l196 126c58,-168 -148,-107 247,-307 62,116 149,201 202,342 -95,97 -131,95 -230,156 -107,-54 -33,-73 -129,-57 -101,18 -137,17 44,274 76,108 14,85 155,74 25,-54 -2,-84 7,-128 17,-84 -28,7 26,-55 9,-10 158,-99 178,-111 124,-70 239,-162 359,-224l46 24c83,39 70,52 169,-15 -29,-61 -67,-131 -98,-183 -5,-9 -48,-76 -50,-78 -53,-57 -19,-41 -102,-57 -87,92 -45,57 -21,188 -124,48 -95,75 -241,108l-183 -330c63,-76 126,-101 204,-146 105,106 -13,45 116,76l74 -49c-33,-101 -120,-294 -234,-319 -103,95 -67,26 -29,181z"/>
   <path class="fil2" d="M11973 5716c-15,95 -87,631 -158,675 -74,45 -103,-91 -108,125l284 64c131,-7 39,9 93,-32 -2,-80 -19,-56 -53,-107 -52,-79 -46,-64 -13,-215 15,-69 25,-123 38,-189l64 -198 273 689c54,143 25,132 173,164 16,-22 21,-17 41,-68l150 -748c53,-25 93,3 144,-96 -50,-95 81,-28 -126,-83 -4,-1 -184,-30 -184,-30 -214,21 1,152 28,177l-105 537c-295,-336 -162,-890 -630,-834 -9,47 -37,62 22,125 5,5 15,11 20,15l47 29z"/>
   <path class="fil2" d="M15630 6995c-79,72 -363,470 -417,570 -477,-86 42,242 109,243 14,-14 89,31 7,-151 -2,-4 -8,-14 -11,-22 50,-58 119,-158 152,-227l380 248 -176 251c-117,-16 -64,-86 -159,48 63,82 182,161 279,214 103,-143 -17,-138 7,-213l418 -531c119,-39 -16,42 104,-6l60 -58c-103,-73 -147,-154 -304,-213 -60,157 -37,39 25,189 -64,80 -98,157 -181,206 -113,-72 -257,-170 -340,-260 305,-467 138,-1 325,-268 -74,-63 -191,-172 -299,-207 -69,138 -33,73 21,187z"/>
   <path class="fil2" d="M5564 21585c-128,-14 -77,-35 -158,-12 -22,146 -39,93 102,187 101,67 88,85 197,62 1,-10 0,-47 0,-47l-50 -144c71,-54 118,-136 156,-218 111,47 296,158 374,260 -262,475 -147,88 -326,288 34,68 31,57 125,123 54,38 126,106 166,68 109,-105 -10,-90 -11,-155l324 -480c184,-281 114,67 244,-164 -89,-105 -201,-211 -325,-178l38 178c-68,81 -66,114 -154,190 -127,-77 -247,-152 -343,-254l134 -208c48,0 276,64 142,-103 -39,-49 -202,-146 -253,-163 -141,247 161,28 -124,382 -75,94 -221,288 -258,388z"/>
   <path class="fil2" d="M16443 21523c102,156 235,100 119,-69 -71,-104 -155,-223 -226,-315 -96,55 -169,101 -261,173 -259,199 -266,102 -195,242l38 3c77,-18 206,-140 386,-233 43,517 -485,610 -695,311 -111,-158 -73,-382 35,-497 178,-192 265,-1 471,-169l-112 -200c-231,78 32,48 -253,154 -285,107 -452,457 -258,765 247,392 787,310 951,-165z"/>
   <path class="fil2" d="M2106 14092c0,-299 77,-520 387,-513 333,8 365,242 347,560l-734 -47zm-125 265c168,-11 -2,-128 352,-98 60,5 451,1 460,53 1,12 8,18 11,22 4,5 17,34 23,41 32,33 -72,41 114,39 101,-271 147,-977 -449,-988 -482,-10 -529,411 -540,766l29 165z"/>
   <path class="fil2" d="M18792 15511c106,19 214,45 298,-10 -21,-116 29,-38 -90,-97 -6,-4 -17,-7 -23,-10l-21 -308 305 21 -12 262c16,80 -6,17 32,66 133,-12 83,46 108,-122 9,-61 8,-121 19,-190l283 26 -146 328c-8,3 -20,9 -26,12 -7,3 -18,7 -26,12 36,91 -116,87 300,97 16,-177 75,-565 42,-714 -165,-13 -82,-1 -126,48l-698 2c-117,-125 62,-108 -146,-132 -62,110 -88,555 -73,709z"/>
   <path class="fil0" d="M6852 21666c-514,139 -309,873 169,727 408,-125 315,-857 -169,-727z"/>
   <path class="fil2" d="M19452 16461c-335,30 -309,-133 -257,-404l383 80c-26,176 -35,222 -126,324zm-731 -402c124,21 79,0 176,-87l247 64c-78,67 -215,108 -328,151 -66,25 -197,54 -202,181 -5,141 -5,42 28,94 277,4 -130,-49 383,-188 55,117 44,226 153,291 459,273 553,-408 604,-639 -166,-63 -101,-33 -181,72l-672 -163c-51,-102 16,-99 -96,-156 -57,33 -48,-18 -93,179 -23,98 -36,101 -19,201z"/>
   <path class="fil2" d="M2905 10983l375 21 -71 193c-21,35 -29,36 -51,59l-253 -273zm-184 -144l-111 267c44,33 45,47 115,27l85 -42c84,119 187,206 292,316 145,150 176,133 214,263l36 116c86,-17 53,1 99,-60 10,-15 122,-209 84,-274 -96,-161 -106,148 -220,-34 -49,-78 -29,-61 1,-143 33,-90 81,-189 136,-255l128 2c3,8 3,12 4,20 6,100 38,100 60,114 85,-20 25,22 84,-48 25,-30 103,-204 97,-296 -158,-49 -32,-19 -94,6 -83,34 59,26 -117,56l-893 -35z"/>
   <path class="fil2" d="M6852 21666c484,-130 577,602 169,727 -478,146 -683,-588 -169,-727zm-446 455c105,655 1146,514 1028,-181 -109,-640 -1141,-526 -1028,181z"/>
   <path class="fil2" d="M2576 17296c-72,-186 8,-259 205,-225l79 152c-92,59 -184,115 -284,73zm405 -104c-63,-200 -55,-349 184,-343 89,73 108,103 135,249l-319 94zm-171 -253c-189,-61 -365,1 -389,194 -13,103 20,186 51,276 38,111 31,159 117,202 90,-40 22,19 60,-67l22 -91 649 -211c136,81 0,84 128,69 126,-14 -56,-387 -86,-440 -135,-234 -488,-241 -552,68z"/>
   <path class="fil2" d="M2077 13180c53,9 14,31 78,-7 123,-72 -40,32 82,-89l672 116c73,186 -94,106 150,146l118 -719c-231,-25 -202,-62 -294,-4 10,155 -24,38 129,128l-44 295 -305 -45c17,-215 122,-320 -74,-337l-71 304 -271 -38 28 -312c147,-10 129,40 175,-59 4,-87 -84,-77 -286,-98 -18,117 -37,229 -58,348 -40,230 -73,266 -29,371z"/>
   <path class="fil2" d="M8632 5972l160 639 -72 60c-38,64 -20,84 -12,127l696 -159c-8,-110 -15,-233 -100,-286 -122,64 -49,4 -66,184l-285 64 -90 -299c236,-68 342,-40 302,-154 -58,-72 44,-18 -58,-41 -77,-17 -197,35 -280,50l-68 -273 316 -34c3,5 19,33 25,39 63,65 0,52 108,46 34,-81 -12,-177 -33,-283 -68,3 -652,121 -688,179 -64,106 109,114 145,141z"/>
   <path class="fil2" d="M2237 15967c-58,-93 2,-77 -74,-98 -108,-30 -88,27 -86,104 0,4 34,152 37,163 41,145 -1,93 96,125 57,-31 40,-23 82,-134 2,-6 5,-17 9,-25 199,-51 459,-144 674,-117 261,418 -251,407 -578,503 -171,-84 75,-90 -160,-91 -72,99 9,191 35,382 153,-14 135,-14 128,-150 488,-93 870,-142 782,-538 -103,-462 -609,-180 -945,-124z"/>
   <path class="fil2" d="M11424 22941c-40,-320 -67,-309 278,-302 28,52 19,68 30,88 41,78 -18,33 66,67 71,-72 37,94 52,-127 1,-22 -11,-144 -12,-178 -131,3 -260,14 -391,22l-253 23c-57,15 -48,16 -76,34 33,206 -33,29 129,128 14,152 21,295 34,447 38,451 -56,117 -99,353 57,45 -13,17 75,38l642 -38c0,-371 -11,-263 -69,-301 -72,39 -23,-14 -77,127l-305 62 -13 -304c430,-21 270,9 310,-96 -65,-103 42,-49 -321,-43z"/>
   <path class="fil2" d="M14259 22025c82,-68 65,-136 54,-182 -91,2 -125,21 -212,53 -174,65 -118,17 -129,144 10,5 36,7 44,9l70 20c95,52 278,600 229,685 -4,7 -215,222 -353,-46 -46,-88 -209,-463 -179,-514l38 -63c60,-155 -132,-74 -203,-46 -121,49 -103,15 -143,100 105,175 98,-68 194,175 137,346 169,664 488,615 542,-81 239,-604 102,-950z"/>
   <path class="fil2" d="M16485 7558c14,104 19,18 47,145l-449 502c-142,-52 -104,-121 -186,47l538 452c84,-61 144,-131 187,-234 -174,-89 -80,-8 -209,50 -49,-58 -160,-153 -222,-214 59,-78 102,-152 175,-219l265 197 94 -100 -242 -179c53,-167 64,-132 176,-235 94,61 166,138 245,217 -91,113 -105,87 -23,188 84,-40 168,-128 203,-220l-524 -470 -75 73z"/>
   <path class="fil2" d="M18887 13077c-30,-62 -77,-145 -30,-238 81,-161 157,36 87,-232l-280 39c21,163 48,101 51,189 0,0 -83,460 336,421 161,-14 233,-102 261,-252 42,-226 -29,-333 225,-313 41,41 101,82 76,171 -50,174 -103,-21 -85,258l226 -31c36,-219 3,-664 -391,-544 -370,113 29,662 -476,532z"/>
   <path class="fil2" d="M4532 9211c139,187 31,314 -94,338 -133,26 -63,-34 -196,21 -28,119 -38,91 49,164 84,70 88,73 194,89 48,-147 -29,-80 46,-154 1,-1 363,-225 139,-501 -274,-339 -458,134 -728,85 -17,-11 -135,-141 17,-249 183,-109 120,71 260,-159 -31,-23 -49,-38 -88,-65 -88,-62 -26,-27 -103,-60 -33,37 1,-7 -41,58 -79,120 -407,295 -150,551 274,274 402,-165 695,-118z"/>
   <path class="fil2" d="M10467 6241c-339,42 -204,244 -523,190 -361,-61 -439,-663 -51,-765 301,-79 211,130 492,77l-34 -246c-235,8 26,53 -278,21 -412,-43 -662,316 -571,672 122,482 823,537 965,51z"/>
   <path class="fil2" d="M3175 11936c24,92 38,213 -35,279 -134,122 -172,-56 -186,184l285 78c5,-33 3,-122 3,-125 14,-131 149,-168 89,-375 -50,-171 -287,-323 -473,-173 -102,82 -155,397 -340,316 -80,-35 -123,-146 -58,-231 101,-133 147,48 181,-193l-211 -70 -35 72c-59,132 -113,198 -105,318 9,142 126,249 269,259 397,27 218,-524 616,-339z"/>
   <path class="fil2" d="M16744 8640c-82,61 -165,107 -206,208 62,55 46,61 137,43 63,260 342,417 546,200 230,-244 -112,-400 -39,-674 129,-30 225,-39 256,97 38,163 -74,77 84,231l172 -144c-462,-695 -729,-198 -672,13 31,113 275,459 -39,426 -257,-27 -97,-246 -239,-400z"/>
   <path class="fil0" d="M2106 14092l734 47c18,-318 -14,-552 -347,-560 -310,-7 -387,214 -387,513z"/>
   <path class="fil2" d="M13575 6817c-99,-165 46,-149 -146,-225 -70,68 -92,175 -115,294 250,46 32,-71 223,65 74,52 149,80 259,58 179,-37 329,-255 203,-455 -83,-130 -368,-176 -288,-365 35,-84 136,-120 222,-51 120,96 -37,116 170,207 73,-57 85,-129 106,-250 -338,-66 -209,-141 -422,-116 -159,18 -302,192 -212,389 41,89 551,358 209,503 -51,21 -56,23 -112,8 -90,-24 -52,-17 -97,-62z"/>
   <path class="fil2" d="M14998 7347c-199,-168 -289,60 -505,-137 -309,-282 -9,-811 391,-646 200,83 146,252 336,322l127 -209c-199,-120 -30,76 -228,-122 -66,-66 -168,-126 -282,-146 -290,-49 -485,108 -561,282 -233,537 437,973 722,656z"/>
   <path class="fil2" d="M18642 11926c-144,-90 12,-128 -165,-83 -24,47 -31,-47 -23,101l92 280c42,-9 70,-7 95,-37 35,-42 10,-65 33,-120l263 -69 77 307 121 -18 -63 -338 272 -62 78 288c-40,37 -216,109 -101,170 56,30 196,-30 271,-48 -17,-120 -53,-234 -84,-350 -42,-153 -51,-287 -131,-347 -269,81 148,96 -302,212 -142,36 -290,80 -433,114z"/>
   <path class="fil2" d="M4213 8530c115,153 178,217 279,143 -50,-162 -167,-16 -24,-244 132,33 200,120 289,204 110,105 138,168 265,245 -26,157 -49,64 -44,173 139,65 125,34 226,-80 89,-102 132,-106 81,-225 -92,-20 -83,-4 -151,53l-516 -493 103 -115c8,7 54,50 71,57l61 11c4,1 15,0 22,-2 0,0 103,-12 -35,-151 -32,-32 -99,-72 -141,-96 -48,27 -21,6 -62,41 -31,26 -37,37 -65,66 -122,129 -293,257 -359,413z"/>
   <path class="fil2" d="M12329 22539c243,-20 89,-32 176,97 40,60 -10,55 118,25l-47 -296c-135,15 -571,77 -704,140l45 265c189,25 65,-50 137,-178l111 -14 124 694 -64 47c-4,5 -12,12 -16,17 -3,5 -9,13 -11,18 -25,53 -12,30 -3,99 88,4 151,-9 244,-25 23,-4 86,-16 103,-25 152,-85 -76,-146 -79,-153 -3,-10 -15,-6 -23,-10l-111 -701z"/>
   <path class="fil2" d="M13225 22347c154,83 -25,135 177,148 26,-40 22,-10 20,-82 0,-29 -8,-50 -14,-76 -14,-63 -28,-98 -42,-163l-692 176 86 306c131,-32 89,-25 96,-145 11,-177 -30,15 15,-68 156,-7 119,-42 167,165 205,880 49,325 36,632 66,50 -79,49 123,30 3,-1 96,-25 106,-28 274,-75 169,-131 -4,-193l-168 -673 94 -29z"/>
   <path class="fil2" d="M7587 6120c80,324 83,253 150,273l21 -92c0,-6 -2,-17 -1,-23l152 -126 227 683c-82,104 -82,86 -60,172 108,7 298,-60 351,-134 -30,-55 -158,-107 -164,-115l-192 -547c-44,-233 -27,-43 18,-128 199,-76 111,2 124,13 42,34 3,16 45,58 66,66 -37,9 55,40 74,-95 50,17 -29,-299l-697 225z"/>
   <path class="fil2" d="M6354 6728c69,249 218,360 212,191 -4,-104 -46,5 -23,-127l119 -61 323 624c0,0 -169,210 35,178 5,0 150,-73 155,-76 111,-65 78,-22 109,-113 -99,-115 -24,-43 -171,-42 -122,-282 -378,-580 -283,-669 116,-107 91,53 198,94l-61 -303 -613 304z"/>
   <path class="fil2" d="M18983 10884l-660 251c-8,-8 -17,-27 -20,-21 -3,6 -15,-14 -18,-18 -37,-31 -16,-55 -109,-29 -43,147 147,423 199,684 364,-83 253,-87 273,-151 -92,-59 -68,-5 -175,-22l-122 -300 674 -256c90,59 37,100 182,55l-89 -273c-42,-76 -15,-35 -61,-72 -109,52 -68,41 -74,152z"/>
   <path class="fil2" d="M18696 10342l-629 318c-99,-86 -30,-116 -184,-43 35,117 97,264 183,346 276,-127 -159,-53 275,-270 132,-66 283,-125 388,-212 119,40 39,22 139,90l80 -65c-179,-377 -107,-315 -256,-314 -35,95 -13,44 4,150z"/>
   <path class="fil2" d="M18566 17113c-174,-59 119,-30 -168,-103 -21,120 -114,277 -76,370 121,15 53,10 126,-56 112,-101 343,-154 488,-169 115,219 207,247 224,415 13,134 -74,50 63,126 82,-55 134,-254 152,-372l-108 -4c-4,1 -13,5 -17,5 -3,1 -12,5 -15,5l-29 8c-79,-89 -171,-236 -223,-346l-417 121z"/>
   <path class="fil2" d="M18454 16934c200,45 35,21 188,-61 77,27 642,203 648,245 1,13 6,19 8,25 27,61 18,74 77,109 57,-42 116,-162 125,-257 16,-169 13,-39 -17,-103 -147,-26 -21,-27 -138,69 -130,-46 -262,-89 -398,-136 -554,-190 -106,-122 -337,-236 -101,44 -140,220 -156,345z"/>
   <path class="fil2" d="M13151 5972l-187 646c-105,29 -116,-40 -136,122l344 108c19,-114 29,-95 -33,-168 -3,-5 -12,-14 -15,-18 -4,-4 -12,-12 -17,-18l184 -641c127,-52 114,63 139,-127l-341 -107c-22,109 -36,88 12,149l50 54z"/>
   <path class="fil0" d="M19452 16461c91,-102 100,-148 126,-324l-383 -80c-52,271 -78,434 257,404z"/>
   <path class="fil0" d="M10547 23053c168,-4 205,-11 335,-55 94,-285 -11,-356 -326,-342l-9 397z"/>
   <path class="fil0" d="M2981 17192l319 -94c-27,-146 -46,-176 -135,-249 -239,-6 -247,143 -184,343z"/>
   <path class="fil0" d="M2576 17296c100,42 192,-14 284,-73l-79 -152c-197,-34 -277,39 -205,225z"/>
   <path class="fil0" d="M5596 7955c-76,-83 -205,-123 -319,-177l111 343c132,-47 119,-60 208,-166z"/>
   <path class="fil0" d="M3158 11256c22,-23 30,-24 51,-59l71 -193 -375 -21 253 273z"/>
   <path class="fil2" d="M7261 21483c52,24 104,41 139,7 81,-173 7,-83 -14,-116 -101,-31 -88,3 -125,109z"/>
   <path class="fil2" d="M7040 21353l86 68c148,-159 51,-140 49,-147 -132,-45 -86,-37 -135,79z"/>
  </g>
 </g>
</svg>
